<?xml version="1.0" encoding="UTF-8" standalone="no"?>
<!DOCTYPE svg PUBLIC "-//W3C//DTD SVG 1.1//EN"
 "http://www.w3.org/Graphics/SVG/1.1/DTD/svg11.dtd">
<!-- Generated by graphviz version 2.43.0 (0)
 -->
<!-- Title: FST Pages: 1 -->
<svg width="234pt" height="104pt"
 viewBox="0.00 0.00 233.51 104.08" xmlns="http://www.w3.org/2000/svg" xmlns:xlink="http://www.w3.org/1999/xlink">
<g id="graph0" class="graph" transform="scale(1 1) rotate(0) translate(4 100.08)">
<title>FST</title>
<polygon fill="white" stroke="transparent" points="-4,4 -4,-100.08 229.51,-100.08 229.51,4 -4,4"/>
<!-- 0 -->
<g id="node1" class="node">
<title>0</title>
<ellipse fill="none" stroke="black" stroke-width="2" cx="19.25" cy="-32.04" rx="18" ry="18"/>
<text text-anchor="middle" x="19.25" y="-27.84" font-family="Times,serif" font-size="14.00">0</text>
</g>
<!-- 0&#45;&gt;0 -->
<g id="edge1" class="edge">
<title>0&#45;&gt;0</title>
<path fill="none" stroke="black" d="M6.54,-45.33C1.1,-56.44 5.34,-68.04 19.25,-68.04 28.81,-68.04 33.8,-62.56 34.22,-55.52"/>
<polygon fill="black" stroke="black" points="37.54,-54.34 31.96,-45.33 30.71,-55.85 37.54,-54.34"/>
<text text-anchor="middle" x="19.25" y="-70.84" font-family="Times,serif" font-size="14.00">a:b/2.3</text>
</g>
<!-- 1 -->
<g id="node2" class="node">
<title>1</title>
<ellipse fill="none" stroke="black" cx="193.47" cy="-32.04" rx="28.07" ry="28.07"/>
<ellipse fill="none" stroke="black" cx="193.47" cy="-32.04" rx="32.08" ry="32.08"/>
<text text-anchor="middle" x="193.47" y="-27.84" font-family="Times,serif" font-size="14.00">1/1.3</text>
</g>
<!-- 0&#45;&gt;1 -->
<g id="edge2" class="edge">
<title>0&#45;&gt;1</title>
<path fill="none" stroke="black" d="M37.39,-32.04C63.64,-32.04 114.57,-32.04 150.9,-32.04"/>
<polygon fill="black" stroke="black" points="151.2,-35.54 161.2,-32.04 151.2,-28.54 151.2,-35.54"/>
<text text-anchor="middle" x="99.34" y="-34.84" font-family="Times,serif" font-size="14.00">c:d/1.1</text>
</g>
<!-- 1&#45;&gt;0 -->
<g id="edge4" class="edge">
<title>1&#45;&gt;0</title>
<path fill="none" stroke="black" d="M163.73,-18.92C158.1,-16.9 152.17,-15.12 146.43,-14.04 105.3,-6.28 92.74,-3.43 52.25,-14.04 49.36,-14.8 46.45,-15.88 43.63,-17.15"/>
<polygon fill="black" stroke="black" points="41.76,-14.18 34.54,-21.93 45.02,-20.37 41.76,-14.18"/>
<text text-anchor="middle" x="99.34" y="-16.84" font-family="Times,serif" font-size="14.00">&lt;eps&gt;:&lt;eps&gt;/1.3</text>
</g>
<!-- 1&#45;&gt;1 -->
<g id="edge3" class="edge">
<title>1&#45;&gt;1</title>
<path fill="none" stroke="black" d="M176.16,-59.07C174.39,-71.38 180.16,-82.08 193.47,-82.08 202.83,-82.08 208.46,-76.79 210.37,-69.37"/>
<polygon fill="black" stroke="black" points="213.88,-69.2 210.79,-59.07 206.88,-68.91 213.88,-69.2"/>
<text text-anchor="middle" x="193.47" y="-84.88" font-family="Times,serif" font-size="14.00">e:f/3.4</text>
</g>
</g>
</svg>
