<?xml version="1.0" encoding="UTF-8" standalone="no"?>
<!DOCTYPE svg PUBLIC "-//W3C//DTD SVG 1.1//EN"
 "http://www.w3.org/Graphics/SVG/1.1/DTD/svg11.dtd">
<!-- Generated by graphviz version 2.43.0 (0)
 -->
<!-- Title: FST Pages: 1 -->
<svg width="178pt" height="104pt"
 viewBox="0.00 0.00 177.82 104.08" xmlns="http://www.w3.org/2000/svg" xmlns:xlink="http://www.w3.org/1999/xlink">
<g id="graph0" class="graph" transform="scale(1 1) rotate(0) translate(4 100.08)">
<title>FST</title>
<polygon fill="white" stroke="transparent" points="-4,4 -4,-100.08 173.82,-100.08 173.82,4 -4,4"/>
<!-- 0 -->
<g id="node1" class="node">
<title>0</title>
<ellipse fill="none" stroke="black" stroke-width="2" cx="19.25" cy="-32.04" rx="18" ry="18"/>
<text text-anchor="middle" x="19.25" y="-27.84" font-family="Times,serif" font-size="14.00">0</text>
</g>
<!-- 0&#45;&gt;0 -->
<g id="edge1" class="edge">
<title>0&#45;&gt;0</title>
<path fill="none" stroke="black" d="M10.27,-47.96C7.93,-58.19 10.92,-68.04 19.25,-68.04 24.71,-68.04 27.88,-63.8 28.75,-57.99"/>
<polygon fill="black" stroke="black" points="32.24,-57.76 28.23,-47.96 25.25,-58.12 32.24,-57.76"/>
<text text-anchor="middle" x="19.25" y="-70.84" font-family="Times,serif" font-size="14.00">a:b/2.3</text>
</g>
<!-- 1 -->
<g id="node2" class="node">
<title>1</title>
<ellipse fill="none" stroke="black" cx="137.78" cy="-32.04" rx="28.07" ry="28.07"/>
<ellipse fill="none" stroke="black" cx="137.78" cy="-32.04" rx="32.08" ry="32.08"/>
<text text-anchor="middle" x="137.78" y="-27.84" font-family="Times,serif" font-size="14.00">1/1.3</text>
</g>
<!-- 0&#45;&gt;1 -->
<g id="edge2" class="edge">
<title>0&#45;&gt;1</title>
<path fill="none" stroke="black" d="M37.44,-32.04C52.65,-32.04 75.44,-32.04 95.36,-32.04"/>
<polygon fill="black" stroke="black" points="95.46,-35.54 105.46,-32.04 95.46,-28.54 95.46,-35.54"/>
<text text-anchor="middle" x="71.49" y="-34.84" font-family="Times,serif" font-size="14.00">c:d/1.1</text>
</g>
<!-- 1&#45;&gt;1 -->
<g id="edge3" class="edge">
<title>1&#45;&gt;1</title>
<path fill="none" stroke="black" d="M125.43,-61.84C125.03,-72.94 129.14,-82.08 137.78,-82.08 143.58,-82.08 147.34,-77.95 149.07,-71.88"/>
<polygon fill="black" stroke="black" points="152.56,-72.15 150.13,-61.84 145.6,-71.41 152.56,-72.15"/>
<text text-anchor="middle" x="137.78" y="-84.88" font-family="Times,serif" font-size="14.00">e:f/3.4</text>
</g>
</g>
</svg>
