<?xml version="1.0" encoding="UTF-8" standalone="no"?>
<!DOCTYPE svg PUBLIC "-//W3C//DTD SVG 1.1//EN"
 "http://www.w3.org/Graphics/SVG/1.1/DTD/svg11.dtd">
<!-- Generated by graphviz version 2.43.0 (0)
 -->
<!-- Title: FST Pages: 1 -->
<svg width="409pt" height="104pt"
 viewBox="0.00 0.00 408.77 104.08" xmlns="http://www.w3.org/2000/svg" xmlns:xlink="http://www.w3.org/1999/xlink">
<g id="graph0" class="graph" transform="scale(1 1) rotate(0) translate(4 100.08)">
<title>FST</title>
<polygon fill="white" stroke="transparent" points="-4,4 -4,-100.08 404.77,-100.08 404.77,4 -4,4"/>
<!-- 2 -->
<g id="node1" class="node">
<title>2</title>
<ellipse fill="none" stroke="black" stroke-width="2" cx="25.41" cy="-32.04" rx="21.33" ry="21.33"/>
<ellipse fill="none" stroke="black" stroke-width="2" cx="25.41" cy="-32.04" rx="25.31" ry="25.31"/>
<text text-anchor="middle" x="25.41" y="-27.84" font-family="Times,serif" font-size="14.00">2/0</text>
</g>
<!-- 0 -->
<g id="node2" class="node">
<title>0</title>
<ellipse fill="none" stroke="black" cx="188.5" cy="-32.04" rx="18" ry="18"/>
<text text-anchor="middle" x="188.5" y="-27.84" font-family="Times,serif" font-size="14.00">0</text>
</g>
<!-- 2&#45;&gt;0 -->
<g id="edge1" class="edge">
<title>2&#45;&gt;0</title>
<path fill="none" stroke="black" d="M50.87,-32.04C80.19,-32.04 129.19,-32.04 159.85,-32.04"/>
<polygon fill="black" stroke="black" points="160.25,-35.54 170.25,-32.04 160.25,-28.54 160.25,-35.54"/>
<text text-anchor="middle" x="110.66" y="-34.84" font-family="Times,serif" font-size="14.00">&lt;eps&gt;:&lt;eps&gt;/0</text>
</g>
<!-- 0&#45;&gt;0 -->
<g id="edge2" class="edge">
<title>0&#45;&gt;0</title>
<path fill="none" stroke="black" d="M176.25,-45.71C171.36,-56.7 175.44,-68.04 188.5,-68.04 197.48,-68.04 202.22,-62.68 202.71,-55.76"/>
<polygon fill="black" stroke="black" points="206.1,-54.85 200.75,-45.71 199.23,-56.19 206.1,-54.85"/>
<text text-anchor="middle" x="188.5" y="-70.84" font-family="Times,serif" font-size="14.00">a:b/2.3</text>
</g>
<!-- 1 -->
<g id="node3" class="node">
<title>1</title>
<ellipse fill="none" stroke="black" cx="368.73" cy="-32.04" rx="28.07" ry="28.07"/>
<ellipse fill="none" stroke="black" cx="368.73" cy="-32.04" rx="32.08" ry="32.08"/>
<text text-anchor="middle" x="368.73" y="-27.84" font-family="Times,serif" font-size="14.00">1/1.3</text>
</g>
<!-- 0&#45;&gt;1 -->
<g id="edge3" class="edge">
<title>0&#45;&gt;1</title>
<path fill="none" stroke="black" d="M206.59,-32.04C233.91,-32.04 288.19,-32.04 326.17,-32.04"/>
<polygon fill="black" stroke="black" points="326.41,-35.54 336.41,-32.04 326.41,-28.54 326.41,-35.54"/>
<text text-anchor="middle" x="271.59" y="-34.84" font-family="Times,serif" font-size="14.00">c:d/1.1</text>
</g>
<!-- 1&#45;&gt;0 -->
<g id="edge5" class="edge">
<title>1&#45;&gt;0</title>
<path fill="none" stroke="black" d="M339.15,-19.65C332.55,-17.32 325.47,-15.25 318.69,-14.04 277.47,-6.71 265.19,-4.19 224.5,-14.04 220.76,-14.95 216.97,-16.32 213.34,-17.92"/>
<polygon fill="black" stroke="black" points="211.59,-14.89 204.22,-22.5 214.72,-21.14 211.59,-14.89"/>
<text text-anchor="middle" x="271.59" y="-16.84" font-family="Times,serif" font-size="14.00">&lt;eps&gt;:&lt;eps&gt;/1.3</text>
</g>
<!-- 1&#45;&gt;1 -->
<g id="edge4" class="edge">
<title>1&#45;&gt;1</title>
<path fill="none" stroke="black" d="M351.08,-58.81C349.16,-71.23 355.04,-82.08 368.73,-82.08 378.46,-82.08 384.24,-76.6 386.08,-68.96"/>
<polygon fill="black" stroke="black" points="389.58,-68.91 386.37,-58.81 382.59,-68.71 389.58,-68.91"/>
<text text-anchor="middle" x="368.73" y="-84.88" font-family="Times,serif" font-size="14.00">e:f/3.4</text>
</g>
</g>
</svg>
