<?xml version="1.0" encoding="UTF-8" standalone="no"?>
<!DOCTYPE svg PUBLIC "-//W3C//DTD SVG 1.1//EN"
 "http://www.w3.org/Graphics/SVG/1.1/DTD/svg11.dtd">
<!-- Generated by graphviz version 2.43.0 (0)
 -->
<!-- Title: FST Pages: 1 -->
<svg width="397pt" height="104pt"
 viewBox="0.00 0.00 396.77 104.08" xmlns="http://www.w3.org/2000/svg" xmlns:xlink="http://www.w3.org/1999/xlink">
<g id="graph0" class="graph" transform="scale(1 1) rotate(0) translate(4 100.08)">
<title>FST</title>
<polygon fill="white" stroke="transparent" points="-4,4 -4,-100.08 392.77,-100.08 392.77,4 -4,4"/>
<!-- 2 -->
<g id="node1" class="node">
<title>2</title>
<ellipse fill="none" stroke="black" stroke-width="2" cx="25.41" cy="-32.04" rx="21.33" ry="21.33"/>
<ellipse fill="none" stroke="black" stroke-width="2" cx="25.41" cy="-32.04" rx="25.31" ry="25.31"/>
<text text-anchor="middle" x="25.41" y="-27.84" font-family="Times,serif" font-size="14.00">2/0</text>
</g>
<!-- 0 -->
<g id="node2" class="node">
<title>0</title>
<ellipse fill="none" stroke="black" cx="182.5" cy="-32.04" rx="18" ry="18"/>
<text text-anchor="middle" x="182.5" y="-27.84" font-family="Times,serif" font-size="14.00">0</text>
</g>
<!-- 2&#45;&gt;0 -->
<g id="edge1" class="edge">
<title>2&#45;&gt;0</title>
<path fill="none" stroke="black" d="M50.98,-32.04C79.01,-32.04 124.71,-32.04 153.92,-32.04"/>
<polygon fill="black" stroke="black" points="154.24,-35.54 164.24,-32.04 154.24,-28.54 154.24,-35.54"/>
<text text-anchor="middle" x="107.66" y="-34.84" font-family="Times,serif" font-size="14.00">&lt;eps&gt;:&lt;eps&gt;/0</text>
</g>
<!-- 0&#45;&gt;0 -->
<g id="edge2" class="edge">
<title>0&#45;&gt;0</title>
<path fill="none" stroke="black" d="M170.58,-45.71C165.81,-56.7 169.78,-68.04 182.5,-68.04 191.24,-68.04 195.86,-62.68 196.33,-55.76"/>
<polygon fill="black" stroke="black" points="199.73,-54.88 194.42,-45.71 192.85,-56.18 199.73,-54.88"/>
<text text-anchor="middle" x="182.5" y="-70.84" font-family="Times,serif" font-size="14.00">a:b/2.3</text>
</g>
<!-- 1 -->
<g id="node3" class="node">
<title>1</title>
<ellipse fill="none" stroke="black" cx="356.73" cy="-32.04" rx="28.07" ry="28.07"/>
<ellipse fill="none" stroke="black" cx="356.73" cy="-32.04" rx="32.08" ry="32.08"/>
<text text-anchor="middle" x="356.73" y="-27.84" font-family="Times,serif" font-size="14.00">1/1.3</text>
</g>
<!-- 0&#45;&gt;1 -->
<g id="edge3" class="edge">
<title>0&#45;&gt;1</title>
<path fill="none" stroke="black" d="M200.64,-32.04C226.9,-32.04 277.83,-32.04 314.16,-32.04"/>
<polygon fill="black" stroke="black" points="314.45,-35.54 324.45,-32.04 314.45,-28.54 314.45,-35.54"/>
<text text-anchor="middle" x="262.59" y="-34.84" font-family="Times,serif" font-size="14.00">c:d/1.1</text>
</g>
<!-- 1&#45;&gt;0 -->
<g id="edge5" class="edge">
<title>1&#45;&gt;0</title>
<path fill="none" stroke="black" d="M326.98,-18.92C321.36,-16.9 315.42,-15.12 309.69,-14.04 268.55,-6.28 255.99,-3.43 215.5,-14.04 212.61,-14.8 209.7,-15.88 206.89,-17.15"/>
<polygon fill="black" stroke="black" points="205.01,-14.18 197.8,-21.93 208.28,-20.37 205.01,-14.18"/>
<text text-anchor="middle" x="262.59" y="-16.84" font-family="Times,serif" font-size="14.00">&lt;eps&gt;:&lt;eps&gt;/1.3</text>
</g>
<!-- 1&#45;&gt;1 -->
<g id="edge4" class="edge">
<title>1&#45;&gt;1</title>
<path fill="none" stroke="black" d="M339.41,-59.07C337.64,-71.38 343.41,-82.08 356.73,-82.08 366.08,-82.08 371.72,-76.79 373.62,-69.37"/>
<polygon fill="black" stroke="black" points="377.13,-69.2 374.04,-59.07 370.14,-68.91 377.13,-69.2"/>
<text text-anchor="middle" x="356.73" y="-84.88" font-family="Times,serif" font-size="14.00">e:f/3.4</text>
</g>
</g>
</svg>
