<?xml version="1.0" encoding="UTF-8" standalone="no"?>
<!DOCTYPE svg PUBLIC "-//W3C//DTD SVG 1.1//EN"
 "http://www.w3.org/Graphics/SVG/1.1/DTD/svg11.dtd">
<!-- Generated by graphviz version 2.43.0 (0)
 -->
<!-- Title: FST Pages: 1 -->
<svg width="240pt" height="104pt"
 viewBox="0.00 0.00 239.51 104.08" xmlns="http://www.w3.org/2000/svg" xmlns:xlink="http://www.w3.org/1999/xlink">
<g id="graph0" class="graph" transform="scale(1 1) rotate(0) translate(4 100.08)">
<title>FST</title>
<polygon fill="white" stroke="transparent" points="-4,4 -4,-100.08 235.51,-100.08 235.51,4 -4,4"/>
<!-- 0 -->
<g id="node1" class="node">
<title>0</title>
<ellipse fill="none" stroke="black" stroke-width="2" cx="19.25" cy="-32.04" rx="18" ry="18"/>
<text text-anchor="middle" x="19.25" y="-27.84" font-family="Times,serif" font-size="14.00">0</text>
</g>
<!-- 0&#45;&gt;0 -->
<g id="edge1" class="edge">
<title>0&#45;&gt;0</title>
<path fill="none" stroke="black" d="M6.41,-44.96C0.55,-56.17 4.83,-68.04 19.25,-68.04 29.38,-68.04 34.51,-62.17 34.62,-54.79"/>
<polygon fill="black" stroke="black" points="37.97,-53.77 32.08,-44.96 31.19,-55.52 37.97,-53.77"/>
<text text-anchor="middle" x="19.25" y="-70.84" font-family="Times,serif" font-size="14.00">a:b/2.3</text>
</g>
<!-- 1 -->
<g id="node2" class="node">
<title>1</title>
<ellipse fill="none" stroke="black" cx="199.47" cy="-32.04" rx="28.07" ry="28.07"/>
<ellipse fill="none" stroke="black" cx="199.47" cy="-32.04" rx="32.08" ry="32.08"/>
<text text-anchor="middle" x="199.47" y="-27.84" font-family="Times,serif" font-size="14.00">1/1.3</text>
</g>
<!-- 0&#45;&gt;1 -->
<g id="edge2" class="edge">
<title>0&#45;&gt;1</title>
<path fill="none" stroke="black" d="M37.34,-32.04C64.65,-32.04 118.94,-32.04 156.92,-32.04"/>
<polygon fill="black" stroke="black" points="157.16,-35.54 167.16,-32.04 157.16,-28.54 157.16,-35.54"/>
<text text-anchor="middle" x="102.34" y="-34.84" font-family="Times,serif" font-size="14.00">c:d/1.1</text>
</g>
<!-- 1&#45;&gt;0 -->
<g id="edge4" class="edge">
<title>1&#45;&gt;0</title>
<path fill="none" stroke="black" d="M169.9,-19.65C163.3,-17.32 156.22,-15.25 149.43,-14.04 108.22,-6.71 95.93,-4.19 55.25,-14.04 51.51,-14.95 47.72,-16.32 44.08,-17.92"/>
<polygon fill="black" stroke="black" points="42.33,-14.89 34.96,-22.5 45.47,-21.14 42.33,-14.89"/>
<text text-anchor="middle" x="102.34" y="-16.84" font-family="Times,serif" font-size="14.00">&lt;eps&gt;:&lt;eps&gt;/1.3</text>
</g>
<!-- 1&#45;&gt;1 -->
<g id="edge3" class="edge">
<title>1&#45;&gt;1</title>
<path fill="none" stroke="black" d="M181.83,-58.81C179.9,-71.23 185.78,-82.08 199.47,-82.08 209.2,-82.08 214.99,-76.6 216.83,-68.96"/>
<polygon fill="black" stroke="black" points="220.33,-68.91 217.12,-58.81 213.33,-68.71 220.33,-68.91"/>
<text text-anchor="middle" x="199.47" y="-84.88" font-family="Times,serif" font-size="14.00">e:f/3.4</text>
</g>
</g>
</svg>
