<?xml version="1.0" encoding="UTF-8" standalone="no"?>
<!DOCTYPE svg PUBLIC "-//W3C//DTD SVG 1.1//EN"
 "http://www.w3.org/Graphics/SVG/1.1/DTD/svg11.dtd">
<!-- Generated by graphviz version 2.43.0 (0)
 -->
<!-- Title: FST Pages: 1 -->
<svg width="678pt" height="104pt"
 viewBox="0.00 0.00 677.90 104.08" xmlns="http://www.w3.org/2000/svg" xmlns:xlink="http://www.w3.org/1999/xlink">
<g id="graph0" class="graph" transform="scale(1 1) rotate(0) translate(4 100.08)">
<title>FST</title>
<polygon fill="white" stroke="transparent" points="-4,4 -4,-100.08 673.9,-100.08 673.9,4 -4,4"/>
<!-- 0 -->
<g id="node1" class="node">
<title>0</title>
<ellipse fill="none" stroke="black" stroke-width="2" cx="18" cy="-32.04" rx="18" ry="18"/>
<text text-anchor="middle" x="18" y="-27.84" font-family="Times,serif" font-size="14.00">0</text>
</g>
<!-- 1 -->
<g id="node2" class="node">
<title>1</title>
<ellipse fill="none" stroke="black" cx="128.49" cy="-32.04" rx="18" ry="18"/>
<text text-anchor="middle" x="128.49" y="-27.84" font-family="Times,serif" font-size="14.00">1</text>
</g>
<!-- 0&#45;&gt;1 -->
<g id="edge1" class="edge">
<title>0&#45;&gt;1</title>
<path fill="none" stroke="black" d="M36.43,-32.04C53.69,-32.04 80.38,-32.04 100.4,-32.04"/>
<polygon fill="black" stroke="black" points="100.46,-35.54 110.46,-32.04 100.46,-28.54 100.46,-35.54"/>
<text text-anchor="middle" x="73.25" y="-34.84" font-family="Times,serif" font-size="14.00">a:b/1.2</text>
</g>
<!-- 0&#45;&gt;1 -->
<g id="edge2" class="edge">
<title>0&#45;&gt;1</title>
<path fill="none" stroke="black" d="M33.72,-22.5C39.75,-19.12 46.96,-15.74 54,-14.04 70.63,-10.01 75.87,-10.01 92.49,-14.04 96.23,-14.95 100.02,-16.32 103.66,-17.92"/>
<polygon fill="black" stroke="black" points="102.27,-21.14 112.78,-22.5 105.41,-14.89 102.27,-21.14"/>
<text text-anchor="middle" x="73.25" y="-16.84" font-family="Times,serif" font-size="14.00">i:j/1.2</text>
</g>
<!-- 1&#45;&gt;1 -->
<g id="edge4" class="edge">
<title>1&#45;&gt;1</title>
<path fill="none" stroke="black" d="M119.26,-47.58C116.66,-57.95 119.74,-68.04 128.49,-68.04 134.24,-68.04 137.54,-63.69 138.39,-57.78"/>
<polygon fill="black" stroke="black" points="141.87,-57.33 137.73,-47.58 134.89,-57.79 141.87,-57.33"/>
<text text-anchor="middle" x="128.49" y="-70.84" font-family="Times,serif" font-size="14.00">g:h/1.2</text>
</g>
<!-- 2 -->
<g id="node3" class="node">
<title>2</title>
<ellipse fill="none" stroke="black" cx="238.99" cy="-32.04" rx="18" ry="18"/>
<text text-anchor="middle" x="238.99" y="-27.84" font-family="Times,serif" font-size="14.00">2</text>
</g>
<!-- 1&#45;&gt;2 -->
<g id="edge3" class="edge">
<title>1&#45;&gt;2</title>
<path fill="none" stroke="black" d="M146.92,-32.04C164.19,-32.04 190.87,-32.04 210.9,-32.04"/>
<polygon fill="black" stroke="black" points="210.96,-35.54 220.96,-32.04 210.96,-28.54 210.96,-35.54"/>
<text text-anchor="middle" x="183.74" y="-34.84" font-family="Times,serif" font-size="14.00">c:d/1.2</text>
</g>
<!-- 3 -->
<g id="node4" class="node">
<title>3</title>
<ellipse fill="none" stroke="black" cx="347.14" cy="-32.04" rx="18" ry="18"/>
<text text-anchor="middle" x="347.14" y="-27.84" font-family="Times,serif" font-size="14.00">3</text>
</g>
<!-- 2&#45;&gt;3 -->
<g id="edge5" class="edge">
<title>2&#45;&gt;3</title>
<path fill="none" stroke="black" d="M257.04,-32.04C273.76,-32.04 299.49,-32.04 319.02,-32.04"/>
<polygon fill="black" stroke="black" points="319.13,-35.54 329.13,-32.04 319.13,-28.54 319.13,-35.54"/>
<text text-anchor="middle" x="293.06" y="-34.84" font-family="Times,serif" font-size="14.00">e:f/1.2</text>
</g>
<!-- 4 -->
<g id="node5" class="node">
<title>4</title>
<ellipse fill="none" stroke="black" cx="513.33" cy="-32.04" rx="18" ry="18"/>
<text text-anchor="middle" x="513.33" y="-27.84" font-family="Times,serif" font-size="14.00">4</text>
</g>
<!-- 3&#45;&gt;4 -->
<g id="edge6" class="edge">
<title>3&#45;&gt;4</title>
<path fill="none" stroke="black" d="M365.4,-32.04C393.93,-32.04 451.14,-32.04 485.14,-32.04"/>
<polygon fill="black" stroke="black" points="485.3,-35.54 495.3,-32.04 485.3,-28.54 485.3,-35.54"/>
<text text-anchor="middle" x="430.23" y="-34.84" font-family="Times,serif" font-size="14.00">&lt;eps&gt;:&lt;eps&gt;/0.2</text>
</g>
<!-- 4&#45;&gt;4 -->
<g id="edge7" class="edge">
<title>4&#45;&gt;4</title>
<path fill="none" stroke="black" d="M504.09,-47.58C501.5,-57.95 504.57,-68.04 513.33,-68.04 519.07,-68.04 522.37,-63.69 523.23,-57.78"/>
<polygon fill="black" stroke="black" points="526.71,-57.33 522.56,-47.58 519.72,-57.79 526.71,-57.33"/>
<text text-anchor="middle" x="513.33" y="-70.84" font-family="Times,serif" font-size="14.00">a:b/2.3</text>
</g>
<!-- 5 -->
<g id="node6" class="node">
<title>5</title>
<ellipse fill="none" stroke="black" cx="637.86" cy="-32.04" rx="28.07" ry="28.07"/>
<ellipse fill="none" stroke="black" cx="637.86" cy="-32.04" rx="32.08" ry="32.08"/>
<text text-anchor="middle" x="637.86" y="-27.84" font-family="Times,serif" font-size="14.00">5/1.3</text>
</g>
<!-- 4&#45;&gt;5 -->
<g id="edge8" class="edge">
<title>4&#45;&gt;5</title>
<path fill="none" stroke="black" d="M531.36,-32.04C547.94,-32.04 573.77,-32.04 595.72,-32.04"/>
<polygon fill="black" stroke="black" points="595.8,-35.54 605.8,-32.04 595.8,-28.54 595.8,-35.54"/>
<text text-anchor="middle" x="568.57" y="-34.84" font-family="Times,serif" font-size="14.00">c:d/1.1</text>
</g>
<!-- 5&#45;&gt;5 -->
<g id="edge9" class="edge">
<title>5&#45;&gt;5</title>
<path fill="none" stroke="black" d="M625.14,-61.84C624.72,-72.94 628.96,-82.08 637.86,-82.08 643.84,-82.08 647.71,-77.95 649.49,-71.88"/>
<polygon fill="black" stroke="black" points="652.98,-72.16 650.58,-61.84 646.02,-71.4 652.98,-72.16"/>
<text text-anchor="middle" x="637.86" y="-84.88" font-family="Times,serif" font-size="14.00">e:f/3.4</text>
</g>
</g>
</svg>
