<?xml version="1.0" encoding="UTF-8" standalone="no"?>
<!DOCTYPE svg PUBLIC "-//W3C//DTD SVG 1.1//EN"
 "http://www.w3.org/Graphics/SVG/1.1/DTD/svg11.dtd">
<!-- Generated by graphviz version 2.43.0 (0)
 -->
<!-- Title: FST Pages: 1 -->
<svg width="184pt" height="104pt"
 viewBox="0.00 0.00 183.82 104.08" xmlns="http://www.w3.org/2000/svg" xmlns:xlink="http://www.w3.org/1999/xlink">
<g id="graph0" class="graph" transform="scale(1 1) rotate(0) translate(4 100.08)">
<title>FST</title>
<polygon fill="white" stroke="transparent" points="-4,4 -4,-100.08 179.82,-100.08 179.82,4 -4,4"/>
<!-- 0 -->
<g id="node1" class="node">
<title>0</title>
<ellipse fill="none" stroke="black" stroke-width="2" cx="19.25" cy="-32.04" rx="18" ry="18"/>
<text text-anchor="middle" x="19.25" y="-27.84" font-family="Times,serif" font-size="14.00">0</text>
</g>
<!-- 0&#45;&gt;0 -->
<g id="edge1" class="edge">
<title>0&#45;&gt;0</title>
<path fill="none" stroke="black" d="M10.01,-47.58C7.42,-57.95 10.49,-68.04 19.25,-68.04 24.99,-68.04 28.29,-63.69 29.15,-57.78"/>
<polygon fill="black" stroke="black" points="32.63,-57.33 28.48,-47.58 25.64,-57.79 32.63,-57.33"/>
<text text-anchor="middle" x="19.25" y="-70.84" font-family="Times,serif" font-size="14.00">a:b/2.3</text>
</g>
<!-- 1 -->
<g id="node2" class="node">
<title>1</title>
<ellipse fill="none" stroke="black" cx="143.78" cy="-32.04" rx="28.07" ry="28.07"/>
<ellipse fill="none" stroke="black" cx="143.78" cy="-32.04" rx="32.08" ry="32.08"/>
<text text-anchor="middle" x="143.78" y="-27.84" font-family="Times,serif" font-size="14.00">1/1.3</text>
</g>
<!-- 0&#45;&gt;1 -->
<g id="edge2" class="edge">
<title>0&#45;&gt;1</title>
<path fill="none" stroke="black" d="M37.28,-32.04C53.86,-32.04 79.69,-32.04 101.64,-32.04"/>
<polygon fill="black" stroke="black" points="101.72,-35.54 111.72,-32.04 101.72,-28.54 101.72,-35.54"/>
<text text-anchor="middle" x="74.49" y="-34.84" font-family="Times,serif" font-size="14.00">c:d/1.1</text>
</g>
<!-- 1&#45;&gt;1 -->
<g id="edge3" class="edge">
<title>1&#45;&gt;1</title>
<path fill="none" stroke="black" d="M131.06,-61.84C130.64,-72.94 134.88,-82.08 143.78,-82.08 149.76,-82.08 153.63,-77.95 155.41,-71.88"/>
<polygon fill="black" stroke="black" points="158.9,-72.16 156.5,-61.84 151.94,-71.4 158.9,-72.16"/>
<text text-anchor="middle" x="143.78" y="-84.88" font-family="Times,serif" font-size="14.00">e:f/3.4</text>
</g>
</g>
</svg>
