<?xml version="1.0" encoding="UTF-8" standalone="no"?>
<!DOCTYPE svg PUBLIC "-//W3C//DTD SVG 1.1//EN"
 "http://www.w3.org/Graphics/SVG/1.1/DTD/svg11.dtd">
<!-- Generated by graphviz version 2.43.0 (0)
 -->
<!-- Title: FST Pages: 1 -->
<svg width="618pt" height="102pt"
 viewBox="0.00 0.00 617.57 102.04" xmlns="http://www.w3.org/2000/svg" xmlns:xlink="http://www.w3.org/1999/xlink">
<g id="graph0" class="graph" transform="scale(1 1) rotate(0) translate(4 98.04)">
<title>FST</title>
<polygon fill="white" stroke="transparent" points="-4,4 -4,-98.04 613.57,-98.04 613.57,4 -4,4"/>
<!-- 0 -->
<g id="node1" class="node">
<title>0</title>
<ellipse fill="none" stroke="black" stroke-width="2" cx="128.49" cy="-18" rx="18" ry="18"/>
<text text-anchor="middle" x="128.49" y="-13.8" font-family="Times,serif" font-size="14.00">0</text>
</g>
<!-- 1 -->
<g id="node2" class="node">
<title>1</title>
<ellipse fill="none" stroke="black" cx="253.03" cy="-62" rx="28.07" ry="28.07"/>
<ellipse fill="none" stroke="black" cx="253.03" cy="-62" rx="32.08" ry="32.08"/>
<text text-anchor="middle" x="253.03" y="-57.8" font-family="Times,serif" font-size="14.00">1/1.2</text>
</g>
<!-- 0&#45;&gt;1 -->
<g id="edge1" class="edge">
<title>0&#45;&gt;1</title>
<path fill="none" stroke="black" d="M145.76,-23.84C162.78,-29.95 190.11,-39.77 212.79,-47.91"/>
<polygon fill="black" stroke="black" points="211.91,-51.31 222.5,-51.4 214.27,-44.73 211.91,-51.31"/>
<text text-anchor="middle" x="183.74" y="-45.8" font-family="Times,serif" font-size="14.00">c:d/1.3</text>
</g>
<!-- 2 -->
<g id="node3" class="node">
<title>2</title>
<ellipse fill="none" stroke="black" cx="375.24" cy="-55" rx="18" ry="18"/>
<text text-anchor="middle" x="375.24" y="-50.8" font-family="Times,serif" font-size="14.00">2</text>
</g>
<!-- 1&#45;&gt;2 -->
<g id="edge2" class="edge">
<title>1&#45;&gt;2</title>
<path fill="none" stroke="black" d="M285.3,-60.18C304.49,-59.06 328.82,-57.64 347.18,-56.58"/>
<polygon fill="black" stroke="black" points="347.43,-60.07 357.21,-55.99 347.03,-53.08 347.43,-60.07"/>
<text text-anchor="middle" x="321.15" y="-61.8" font-family="Times,serif" font-size="14.00">e:f/2.6</text>
</g>
<!-- 3 -->
<g id="node4" class="node">
<title>3</title>
<ellipse fill="none" stroke="black" cx="486.51" cy="-18" rx="18" ry="18"/>
<text text-anchor="middle" x="486.51" y="-13.8" font-family="Times,serif" font-size="14.00">3</text>
</g>
<!-- 2&#45;&gt;3 -->
<g id="edge3" class="edge">
<title>2&#45;&gt;3</title>
<path fill="none" stroke="black" d="M392.83,-49.38C410.51,-43.4 438.72,-33.84 459.38,-26.85"/>
<polygon fill="black" stroke="black" points="460.77,-30.07 469.12,-23.55 458.52,-23.44 460.77,-30.07"/>
<text text-anchor="middle" x="430.87" y="-45.8" font-family="Times,serif" font-size="14.00">g:h/0.3</text>
</g>
<!-- 3&#45;&gt;0 -->
<g id="edge5" class="edge">
<title>3&#45;&gt;0</title>
<path fill="none" stroke="black" d="M468.1,-18C410.65,-18 226.84,-18 156.88,-18"/>
<polygon fill="black" stroke="black" points="156.66,-14.5 146.66,-18 156.66,-21.5 156.66,-14.5"/>
<text text-anchor="middle" x="321.15" y="-20.8" font-family="Times,serif" font-size="14.00">k:l/1.8</text>
</g>
<!-- 4 -->
<g id="node5" class="node">
<title>4</title>
<ellipse fill="none" stroke="black" cx="591.57" cy="-18" rx="18" ry="18"/>
<text text-anchor="middle" x="591.57" y="-13.8" font-family="Times,serif" font-size="14.00">4</text>
</g>
<!-- 3&#45;&gt;4 -->
<g id="edge4" class="edge">
<title>3&#45;&gt;4</title>
<path fill="none" stroke="black" d="M504.53,-18C520.49,-18 544.63,-18 563.29,-18"/>
<polygon fill="black" stroke="black" points="563.53,-21.5 573.53,-18 563.53,-14.5 563.53,-21.5"/>
<text text-anchor="middle" x="539.04" y="-20.8" font-family="Times,serif" font-size="14.00">i:j/0.7</text>
</g>
<!-- 5 -->
<g id="node6" class="node">
<title>5</title>
<ellipse fill="none" stroke="black" cx="18" cy="-18" rx="18" ry="18"/>
<text text-anchor="middle" x="18" y="-13.8" font-family="Times,serif" font-size="14.00">5</text>
</g>
<!-- 5&#45;&gt;0 -->
<g id="edge6" class="edge">
<title>5&#45;&gt;0</title>
<path fill="none" stroke="black" d="M36.43,-18C53.69,-18 80.38,-18 100.4,-18"/>
<polygon fill="black" stroke="black" points="100.46,-21.5 110.46,-18 100.46,-14.5 100.46,-21.5"/>
<text text-anchor="middle" x="73.25" y="-20.8" font-family="Times,serif" font-size="14.00">a:b/2.1</text>
</g>
</g>
</svg>
