<?xml version="1.0" encoding="UTF-8" standalone="no"?>
<!DOCTYPE svg PUBLIC "-//W3C//DTD SVG 1.1//EN"
 "http://www.w3.org/Graphics/SVG/1.1/DTD/svg11.dtd">
<!-- Generated by graphviz version 2.43.0 (0)
 -->
<!-- Title: FST Pages: 1 -->
<svg width="384pt" height="102pt"
 viewBox="0.00 0.00 384.02 102.04" xmlns="http://www.w3.org/2000/svg" xmlns:xlink="http://www.w3.org/1999/xlink">
<g id="graph0" class="graph" transform="scale(1 1) rotate(0) translate(4 98.04)">
<title>FST</title>
<polygon fill="white" stroke="transparent" points="-4,4 -4,-98.04 380.02,-98.04 380.02,4 -4,4"/>
<!-- 0 -->
<g id="node1" class="node">
<title>0</title>
<ellipse fill="none" stroke="black" stroke-width="2" cx="18" cy="-18" rx="18" ry="18"/>
<text text-anchor="middle" x="18" y="-13.8" font-family="Times,serif" font-size="14.00">0</text>
</g>
<!-- 1 -->
<g id="node2" class="node">
<title>1</title>
<ellipse fill="none" stroke="black" cx="136.53" cy="-62" rx="28.07" ry="28.07"/>
<ellipse fill="none" stroke="black" cx="136.53" cy="-62" rx="32.08" ry="32.08"/>
<text text-anchor="middle" x="136.53" y="-57.8" font-family="Times,serif" font-size="14.00">1/1.2</text>
</g>
<!-- 0&#45;&gt;1 -->
<g id="edge1" class="edge">
<title>0&#45;&gt;1</title>
<path fill="none" stroke="black" d="M35.2,-24.12C50.97,-30.07 75.53,-39.34 96.4,-47.23"/>
<polygon fill="black" stroke="black" points="95.4,-50.59 106,-50.85 97.88,-44.04 95.4,-50.59"/>
<text text-anchor="middle" x="70.25" y="-45.8" font-family="Times,serif" font-size="14.00">c:d/1.3</text>
</g>
<!-- 2 -->
<g id="node3" class="node">
<title>2</title>
<ellipse fill="none" stroke="black" cx="252.74" cy="-55" rx="18" ry="18"/>
<text text-anchor="middle" x="252.74" y="-50.8" font-family="Times,serif" font-size="14.00">2</text>
</g>
<!-- 1&#45;&gt;2 -->
<g id="edge2" class="edge">
<title>1&#45;&gt;2</title>
<path fill="none" stroke="black" d="M168.74,-60.09C186.19,-59.02 207.72,-57.7 224.49,-56.67"/>
<polygon fill="black" stroke="black" points="224.95,-60.15 234.72,-56.04 224.53,-53.16 224.95,-60.15"/>
<text text-anchor="middle" x="201.66" y="-61.8" font-family="Times,serif" font-size="14.00">e:f/2.6</text>
</g>
<!-- 3 -->
<g id="node4" class="node">
<title>3</title>
<ellipse fill="none" stroke="black" cx="358.02" cy="-18" rx="18" ry="18"/>
<text text-anchor="middle" x="358.02" y="-13.8" font-family="Times,serif" font-size="14.00">3</text>
</g>
<!-- 2&#45;&gt;3 -->
<g id="edge3" class="edge">
<title>2&#45;&gt;3</title>
<path fill="none" stroke="black" d="M269.88,-49.22C286.23,-43.36 311.78,-34.21 331,-27.32"/>
<polygon fill="black" stroke="black" points="332.42,-30.53 340.66,-23.86 330.06,-23.94 332.42,-30.53"/>
<text text-anchor="middle" x="305.38" y="-45.8" font-family="Times,serif" font-size="14.00">g:h/0.3</text>
</g>
<!-- 3&#45;&gt;0 -->
<g id="edge4" class="edge">
<title>3&#45;&gt;0</title>
<path fill="none" stroke="black" d="M339.83,-18C284.95,-18 113.65,-18 46.44,-18"/>
<polygon fill="black" stroke="black" points="46.23,-14.5 36.23,-18 46.23,-21.5 46.23,-14.5"/>
<text text-anchor="middle" x="201.66" y="-20.8" font-family="Times,serif" font-size="14.00">k:l/1.8</text>
</g>
</g>
</svg>
