<?xml version="1.0" encoding="UTF-8" standalone="no"?>
<!DOCTYPE svg PUBLIC "-//W3C//DTD SVG 1.1//EN"
 "http://www.w3.org/Graphics/SVG/1.1/DTD/svg11.dtd">
<!-- Generated by graphviz version 2.43.0 (0)
 -->
<!-- Title: FST Pages: 1 -->
<svg width="588pt" height="102pt"
 viewBox="0.00 0.00 587.57 102.04" xmlns="http://www.w3.org/2000/svg" xmlns:xlink="http://www.w3.org/1999/xlink">
<g id="graph0" class="graph" transform="scale(1 1) rotate(0) translate(4 98.04)">
<title>FST</title>
<polygon fill="white" stroke="transparent" points="-4,4 -4,-98.04 583.57,-98.04 583.57,4 -4,4"/>
<!-- 0 -->
<g id="node1" class="node">
<title>0</title>
<ellipse fill="none" stroke="black" stroke-width="2" cx="122.49" cy="-18" rx="18" ry="18"/>
<text text-anchor="middle" x="122.49" y="-13.8" font-family="Times,serif" font-size="14.00">0</text>
</g>
<!-- 1 -->
<g id="node2" class="node">
<title>1</title>
<ellipse fill="none" stroke="black" cx="241.03" cy="-62" rx="28.07" ry="28.07"/>
<ellipse fill="none" stroke="black" cx="241.03" cy="-62" rx="32.08" ry="32.08"/>
<text text-anchor="middle" x="241.03" y="-57.8" font-family="Times,serif" font-size="14.00">1/1.2</text>
</g>
<!-- 0&#45;&gt;1 -->
<g id="edge1" class="edge">
<title>0&#45;&gt;1</title>
<path fill="none" stroke="black" d="M139.7,-24.12C155.46,-30.07 180.02,-39.34 200.9,-47.23"/>
<polygon fill="black" stroke="black" points="199.9,-50.59 210.49,-50.85 202.37,-44.04 199.9,-50.59"/>
<text text-anchor="middle" x="174.74" y="-45.8" font-family="Times,serif" font-size="14.00">c:d/1.3</text>
</g>
<!-- 2 -->
<g id="node3" class="node">
<title>2</title>
<ellipse fill="none" stroke="black" cx="357.24" cy="-55" rx="18" ry="18"/>
<text text-anchor="middle" x="357.24" y="-50.8" font-family="Times,serif" font-size="14.00">2</text>
</g>
<!-- 1&#45;&gt;2 -->
<g id="edge2" class="edge">
<title>1&#45;&gt;2</title>
<path fill="none" stroke="black" d="M273.23,-60.09C290.68,-59.02 312.22,-57.7 328.98,-56.67"/>
<polygon fill="black" stroke="black" points="329.45,-60.15 339.21,-56.04 329.02,-53.16 329.45,-60.15"/>
<text text-anchor="middle" x="306.15" y="-61.8" font-family="Times,serif" font-size="14.00">e:f/2.6</text>
</g>
<!-- 3 -->
<g id="node4" class="node">
<title>3</title>
<ellipse fill="none" stroke="black" cx="462.51" cy="-18" rx="18" ry="18"/>
<text text-anchor="middle" x="462.51" y="-13.8" font-family="Times,serif" font-size="14.00">3</text>
</g>
<!-- 2&#45;&gt;3 -->
<g id="edge3" class="edge">
<title>2&#45;&gt;3</title>
<path fill="none" stroke="black" d="M374.37,-49.22C390.72,-43.36 416.28,-34.21 435.49,-27.32"/>
<polygon fill="black" stroke="black" points="436.92,-30.53 445.15,-23.86 434.55,-23.94 436.92,-30.53"/>
<text text-anchor="middle" x="409.87" y="-45.8" font-family="Times,serif" font-size="14.00">g:h/0.3</text>
</g>
<!-- 3&#45;&gt;0 -->
<g id="edge5" class="edge">
<title>3&#45;&gt;0</title>
<path fill="none" stroke="black" d="M444.32,-18C389.44,-18 218.14,-18 150.94,-18"/>
<polygon fill="black" stroke="black" points="150.72,-14.5 140.72,-18 150.72,-21.5 150.72,-14.5"/>
<text text-anchor="middle" x="306.15" y="-20.8" font-family="Times,serif" font-size="14.00">k:l/1.8</text>
</g>
<!-- 4 -->
<g id="node5" class="node">
<title>4</title>
<ellipse fill="none" stroke="black" cx="561.57" cy="-18" rx="18" ry="18"/>
<text text-anchor="middle" x="561.57" y="-13.8" font-family="Times,serif" font-size="14.00">4</text>
</g>
<!-- 3&#45;&gt;4 -->
<g id="edge4" class="edge">
<title>3&#45;&gt;4</title>
<path fill="none" stroke="black" d="M480.87,-18C495.36,-18 516.28,-18 533.06,-18"/>
<polygon fill="black" stroke="black" points="533.37,-21.5 543.37,-18 533.37,-14.5 533.37,-21.5"/>
<text text-anchor="middle" x="512.04" y="-20.8" font-family="Times,serif" font-size="14.00">i:j/0.7</text>
</g>
<!-- 5 -->
<g id="node6" class="node">
<title>5</title>
<ellipse fill="none" stroke="black" cx="18" cy="-18" rx="18" ry="18"/>
<text text-anchor="middle" x="18" y="-13.8" font-family="Times,serif" font-size="14.00">5</text>
</g>
<!-- 5&#45;&gt;0 -->
<g id="edge6" class="edge">
<title>5&#45;&gt;0</title>
<path fill="none" stroke="black" d="M36.39,-18C52.24,-18 75.91,-18 94.27,-18"/>
<polygon fill="black" stroke="black" points="94.36,-21.5 104.36,-18 94.36,-14.5 94.36,-21.5"/>
<text text-anchor="middle" x="70.25" y="-20.8" font-family="Times,serif" font-size="14.00">a:b/2.1</text>
</g>
</g>
</svg>
