<?xml version="1.0" encoding="UTF-8" standalone="no"?>
<!DOCTYPE svg PUBLIC "-//W3C//DTD SVG 1.1//EN"
 "http://www.w3.org/Graphics/SVG/1.1/DTD/svg11.dtd">
<!-- Generated by graphviz version 2.43.0 (0)
 -->
<!-- Title: FST Pages: 1 -->
<svg width="402pt" height="102pt"
 viewBox="0.00 0.00 402.02 102.04" xmlns="http://www.w3.org/2000/svg" xmlns:xlink="http://www.w3.org/1999/xlink">
<g id="graph0" class="graph" transform="scale(1 1) rotate(0) translate(4 98.04)">
<title>FST</title>
<polygon fill="white" stroke="transparent" points="-4,4 -4,-98.04 398.02,-98.04 398.02,4 -4,4"/>
<!-- 0 -->
<g id="node1" class="node">
<title>0</title>
<ellipse fill="none" stroke="black" stroke-width="2" cx="18" cy="-18" rx="18" ry="18"/>
<text text-anchor="middle" x="18" y="-13.8" font-family="Times,serif" font-size="14.00">0</text>
</g>
<!-- 1 -->
<g id="node2" class="node">
<title>1</title>
<ellipse fill="none" stroke="black" cx="142.53" cy="-62" rx="28.07" ry="28.07"/>
<ellipse fill="none" stroke="black" cx="142.53" cy="-62" rx="32.08" ry="32.08"/>
<text text-anchor="middle" x="142.53" y="-57.8" font-family="Times,serif" font-size="14.00">1/1.2</text>
</g>
<!-- 0&#45;&gt;1 -->
<g id="edge1" class="edge">
<title>0&#45;&gt;1</title>
<path fill="none" stroke="black" d="M35.27,-23.84C52.28,-29.95 79.61,-39.77 102.29,-47.91"/>
<polygon fill="black" stroke="black" points="101.42,-51.31 112.01,-51.4 103.78,-44.73 101.42,-51.31"/>
<text text-anchor="middle" x="73.25" y="-45.8" font-family="Times,serif" font-size="14.00">c:d/1.3</text>
</g>
<!-- 2 -->
<g id="node3" class="node">
<title>2</title>
<ellipse fill="none" stroke="black" cx="264.74" cy="-55" rx="18" ry="18"/>
<text text-anchor="middle" x="264.74" y="-50.8" font-family="Times,serif" font-size="14.00">2</text>
</g>
<!-- 1&#45;&gt;2 -->
<g id="edge2" class="edge">
<title>1&#45;&gt;2</title>
<path fill="none" stroke="black" d="M174.8,-60.18C193.99,-59.06 218.32,-57.64 236.68,-56.58"/>
<polygon fill="black" stroke="black" points="236.94,-60.07 246.72,-55.99 236.53,-53.08 236.94,-60.07"/>
<text text-anchor="middle" x="210.66" y="-61.8" font-family="Times,serif" font-size="14.00">e:f/2.6</text>
</g>
<!-- 3 -->
<g id="node4" class="node">
<title>3</title>
<ellipse fill="none" stroke="black" cx="376.02" cy="-18" rx="18" ry="18"/>
<text text-anchor="middle" x="376.02" y="-13.8" font-family="Times,serif" font-size="14.00">3</text>
</g>
<!-- 2&#45;&gt;3 -->
<g id="edge3" class="edge">
<title>2&#45;&gt;3</title>
<path fill="none" stroke="black" d="M282.34,-49.38C300.01,-43.4 328.23,-33.84 348.89,-26.85"/>
<polygon fill="black" stroke="black" points="350.28,-30.07 358.63,-23.55 348.03,-23.44 350.28,-30.07"/>
<text text-anchor="middle" x="320.38" y="-45.8" font-family="Times,serif" font-size="14.00">g:h/0.3</text>
</g>
<!-- 3&#45;&gt;0 -->
<g id="edge4" class="edge">
<title>3&#45;&gt;0</title>
<path fill="none" stroke="black" d="M357.6,-18C300.15,-18 116.34,-18 46.39,-18"/>
<polygon fill="black" stroke="black" points="46.17,-14.5 36.17,-18 46.17,-21.5 46.17,-14.5"/>
<text text-anchor="middle" x="210.66" y="-20.8" font-family="Times,serif" font-size="14.00">k:l/1.8</text>
</g>
</g>
</svg>
