<?xml version="1.0" encoding="UTF-8" standalone="no"?>
<!DOCTYPE svg PUBLIC "-//W3C//DTD SVG 1.1//EN"
 "http://www.w3.org/Graphics/SVG/1.1/DTD/svg11.dtd">
<!-- Generated by graphviz version 2.43.0 (0)
 -->
<!-- Title: FST Pages: 1 -->
<svg width="253pt" height="98pt"
 viewBox="0.00 0.00 252.77 98.00" xmlns="http://www.w3.org/2000/svg" xmlns:xlink="http://www.w3.org/1999/xlink">
<g id="graph0" class="graph" transform="scale(1 1) rotate(0) translate(4 94)">
<title>FST</title>
<polygon fill="white" stroke="transparent" points="-4,4 -4,-94 248.77,-94 248.77,4 -4,4"/>
<!-- 0 -->
<g id="node1" class="node">
<title>0</title>
<ellipse fill="none" stroke="black" stroke-width="2" cx="18" cy="-44" rx="18" ry="18"/>
<text text-anchor="middle" x="18" y="-39.8" font-family="Times,serif" font-size="14.00">0</text>
</g>
<!-- 1 -->
<g id="node2" class="node">
<title>1</title>
<ellipse fill="none" stroke="black" cx="117.99" cy="-72" rx="18" ry="18"/>
<text text-anchor="middle" x="117.99" y="-67.8" font-family="Times,serif" font-size="14.00">1</text>
</g>
<!-- 0&#45;&gt;1 -->
<g id="edge1" class="edge">
<title>0&#45;&gt;1</title>
<path fill="none" stroke="black" d="M35.62,-48.75C50.69,-53.05 73.14,-59.47 90.65,-64.47"/>
<polygon fill="black" stroke="black" points="89.71,-67.84 100.29,-67.23 91.63,-61.11 89.71,-67.84"/>
<text text-anchor="middle" x="68" y="-63.8" font-family="Times,serif" font-size="14.00">a:b/1</text>
</g>
<!-- 2 -->
<g id="node3" class="node">
<title>2</title>
<ellipse fill="none" stroke="black" cx="117.99" cy="-18" rx="18" ry="18"/>
<text text-anchor="middle" x="117.99" y="-13.8" font-family="Times,serif" font-size="14.00">2</text>
</g>
<!-- 0&#45;&gt;2 -->
<g id="edge2" class="edge">
<title>0&#45;&gt;2</title>
<path fill="none" stroke="black" d="M34.86,-37.53C40.8,-35.26 47.65,-32.82 54,-31 65.63,-27.66 78.7,-24.82 89.91,-22.65"/>
<polygon fill="black" stroke="black" points="90.78,-26.05 99.98,-20.79 89.51,-19.17 90.78,-26.05"/>
<text text-anchor="middle" x="68" y="-33.8" font-family="Times,serif" font-size="14.00">a:c/2</text>
</g>
<!-- 3 -->
<g id="node4" class="node">
<title>3</title>
<ellipse fill="none" stroke="black" cx="222.77" cy="-55" rx="18" ry="18"/>
<ellipse fill="none" stroke="black" cx="222.77" cy="-55" rx="22" ry="22"/>
<text text-anchor="middle" x="222.77" y="-50.8" font-family="Times,serif" font-size="14.00">3</text>
</g>
<!-- 1&#45;&gt;3 -->
<g id="edge3" class="edge">
<title>1&#45;&gt;3</title>
<path fill="none" stroke="black" d="M136.23,-73.01C149.16,-73.39 167.24,-73.14 182.77,-70 186.04,-69.34 189.4,-68.43 192.7,-67.39"/>
<polygon fill="black" stroke="black" points="194.08,-70.61 202.32,-63.95 191.72,-64.02 194.08,-70.61"/>
<text text-anchor="middle" x="168.38" y="-74.8" font-family="Times,serif" font-size="14.00">d:e/3</text>
</g>
<!-- 1&#45;&gt;3 -->
<g id="edge4" class="edge">
<title>1&#45;&gt;3</title>
<path fill="none" stroke="black" d="M132.9,-61.83C139.04,-57.95 146.55,-53.98 153.99,-52 165.76,-48.88 179.07,-48.76 190.77,-49.74"/>
<polygon fill="black" stroke="black" points="190.63,-53.25 200.96,-50.89 191.41,-46.29 190.63,-53.25"/>
<text text-anchor="middle" x="168.38" y="-54.8" font-family="Times,serif" font-size="14.00">d:f/4</text>
</g>
<!-- 2&#45;&gt;3 -->
<g id="edge5" class="edge">
<title>2&#45;&gt;3</title>
<path fill="none" stroke="black" d="M135.97,-19.82C149.1,-21.61 167.53,-24.98 182.77,-31 187.05,-32.69 191.38,-34.84 195.53,-37.16"/>
<polygon fill="black" stroke="black" points="193.84,-40.23 204.21,-42.38 197.45,-34.23 193.84,-40.23"/>
<text text-anchor="middle" x="168.38" y="-33.8" font-family="Times,serif" font-size="14.00">g:h/5</text>
</g>
</g>
</svg>
