<?xml version="1.0" encoding="UTF-8" standalone="no"?>
<!DOCTYPE svg PUBLIC "-//W3C//DTD SVG 1.1//EN"
 "http://www.w3.org/Graphics/SVG/1.1/DTD/svg11.dtd">
<!-- Generated by graphviz version 2.43.0 (0)
 -->
<!-- Title: FST Pages: 1 -->
<svg width="398pt" height="98pt"
 viewBox="0.00 0.00 397.57 98.00" xmlns="http://www.w3.org/2000/svg" xmlns:xlink="http://www.w3.org/1999/xlink">
<g id="graph0" class="graph" transform="scale(1 1) rotate(0) translate(4 94)">
<title>FST</title>
<polygon fill="white" stroke="transparent" points="-4,4 -4,-94 393.57,-94 393.57,4 -4,4"/>
<!-- 0 -->
<g id="node1" class="node">
<title>0</title>
<ellipse fill="none" stroke="black" stroke-width="2" cx="18" cy="-44" rx="18" ry="18"/>
<text text-anchor="middle" x="18" y="-39.8" font-family="Times,serif" font-size="14.00">0</text>
</g>
<!-- 1 -->
<g id="node2" class="node">
<title>1</title>
<ellipse fill="none" stroke="black" cx="145.45" cy="-44" rx="18" ry="18"/>
<text text-anchor="middle" x="145.45" y="-39.8" font-family="Times,serif" font-size="14.00">1</text>
</g>
<!-- 0&#45;&gt;1 -->
<g id="edge1" class="edge">
<title>0&#45;&gt;1</title>
<path fill="none" stroke="black" d="M36.18,-44C56.99,-44 92.31,-44 116.93,-44"/>
<polygon fill="black" stroke="black" points="117.07,-47.5 127.07,-44 117.07,-40.5 117.07,-47.5"/>
<text text-anchor="middle" x="81.72" y="-46.8" font-family="Times,serif" font-size="14.00">a:&lt;eps&gt;/1</text>
</g>
<!-- 2 -->
<g id="node3" class="node">
<title>2</title>
<ellipse fill="none" stroke="black" cx="246.23" cy="-72" rx="18" ry="18"/>
<text text-anchor="middle" x="246.23" y="-67.8" font-family="Times,serif" font-size="14.00">2</text>
</g>
<!-- 1&#45;&gt;2 -->
<g id="edge2" class="edge">
<title>1&#45;&gt;2</title>
<path fill="none" stroke="black" d="M163.2,-48.75C178.48,-53.08 201.29,-59.55 218.99,-64.56"/>
<polygon fill="black" stroke="black" points="218.14,-67.96 228.72,-67.32 220.05,-61.23 218.14,-67.96"/>
<text text-anchor="middle" x="195.84" y="-63.8" font-family="Times,serif" font-size="14.00">d:b/3</text>
</g>
<!-- 3 -->
<g id="node4" class="node">
<title>3</title>
<ellipse fill="none" stroke="black" cx="246.23" cy="-18" rx="18" ry="18"/>
<text text-anchor="middle" x="246.23" y="-13.8" font-family="Times,serif" font-size="14.00">3</text>
</g>
<!-- 1&#45;&gt;3 -->
<g id="edge3" class="edge">
<title>1&#45;&gt;3</title>
<path fill="none" stroke="black" d="M162.3,-37.52C168.24,-35.25 175.09,-32.82 181.45,-31 193.43,-27.58 206.92,-24.69 218.39,-22.51"/>
<polygon fill="black" stroke="black" points="219.06,-25.95 228.27,-20.72 217.8,-19.06 219.06,-25.95"/>
<text text-anchor="middle" x="195.84" y="-33.8" font-family="Times,serif" font-size="14.00">g:c/6</text>
</g>
<!-- 4 -->
<g id="node5" class="node">
<title>4</title>
<ellipse fill="none" stroke="black" cx="367.57" cy="-44" rx="18" ry="18"/>
<ellipse fill="none" stroke="black" cx="367.57" cy="-44" rx="22" ry="22"/>
<text text-anchor="middle" x="367.57" y="-39.8" font-family="Times,serif" font-size="14.00">4</text>
</g>
<!-- 2&#45;&gt;4 -->
<g id="edge4" class="edge">
<title>2&#45;&gt;4</title>
<path fill="none" stroke="black" d="M263.82,-68.11C282.37,-63.75 312.81,-56.61 335.76,-51.23"/>
<polygon fill="black" stroke="black" points="336.77,-54.59 345.7,-48.9 335.17,-47.77 336.77,-54.59"/>
<text text-anchor="middle" x="304.9" y="-65.8" font-family="Times,serif" font-size="14.00">&lt;eps&gt;:e</text>
</g>
<!-- 3&#45;&gt;4 -->
<g id="edge5" class="edge">
<title>3&#45;&gt;4</title>
<path fill="none" stroke="black" d="M264.31,-19.95C280.69,-22.01 306.03,-25.7 327.57,-31 330.59,-31.74 333.71,-32.61 336.82,-33.54"/>
<polygon fill="black" stroke="black" points="335.92,-36.92 346.51,-36.63 338.04,-30.25 335.92,-36.92"/>
<text text-anchor="middle" x="304.9" y="-33.8" font-family="Times,serif" font-size="14.00">&lt;eps&gt;:h</text>
</g>
</g>
</svg>
