<?xml version="1.0" encoding="UTF-8" standalone="no"?>
<!DOCTYPE svg PUBLIC "-//W3C//DTD SVG 1.1//EN"
 "http://www.w3.org/Graphics/SVG/1.1/DTD/svg11.dtd">
<!-- Generated by graphviz version 2.43.0 (0)
 -->
<!-- Title: FST Pages: 1 -->
<svg width="401pt" height="90pt"
 viewBox="0.00 0.00 401.22 90.04" xmlns="http://www.w3.org/2000/svg" xmlns:xlink="http://www.w3.org/1999/xlink">
<g id="graph0" class="graph" transform="scale(1 1) rotate(0) translate(4 86.04)">
<title>FST</title>
<polygon fill="white" stroke="transparent" points="-4,4 -4,-86.04 397.22,-86.04 397.22,4 -4,4"/>
<!-- 0 -->
<g id="node1" class="node">
<title>0</title>
<ellipse fill="none" stroke="black" stroke-width="2" cx="18" cy="-32.04" rx="18" ry="18"/>
<text text-anchor="middle" x="18" y="-27.84" font-family="Times,serif" font-size="14.00">0</text>
</g>
<!-- 1 -->
<g id="node2" class="node">
<title>1</title>
<ellipse fill="none" stroke="black" cx="128.49" cy="-32.04" rx="18" ry="18"/>
<text text-anchor="middle" x="128.49" y="-27.84" font-family="Times,serif" font-size="14.00">1</text>
</g>
<!-- 0&#45;&gt;1 -->
<g id="edge1" class="edge">
<title>0&#45;&gt;1</title>
<path fill="none" stroke="black" d="M36.43,-32.04C53.69,-32.04 80.38,-32.04 100.4,-32.04"/>
<polygon fill="black" stroke="black" points="100.46,-35.54 110.46,-32.04 100.46,-28.54 100.46,-35.54"/>
<text text-anchor="middle" x="73.25" y="-34.84" font-family="Times,serif" font-size="14.00">b:a/1.2</text>
</g>
<!-- 0&#45;&gt;1 -->
<g id="edge2" class="edge">
<title>0&#45;&gt;1</title>
<path fill="none" stroke="black" d="M33.72,-22.5C39.75,-19.12 46.96,-15.74 54,-14.04 70.63,-10.01 75.87,-10.01 92.49,-14.04 96.23,-14.95 100.02,-16.32 103.66,-17.92"/>
<polygon fill="black" stroke="black" points="102.27,-21.14 112.78,-22.5 105.41,-14.89 102.27,-21.14"/>
<text text-anchor="middle" x="73.25" y="-16.84" font-family="Times,serif" font-size="14.00">j:i/1.2</text>
</g>
<!-- 1&#45;&gt;1 -->
<g id="edge4" class="edge">
<title>1&#45;&gt;1</title>
<path fill="none" stroke="black" d="M119.26,-47.58C116.66,-57.95 119.74,-68.04 128.49,-68.04 134.24,-68.04 137.54,-63.69 138.39,-57.78"/>
<polygon fill="black" stroke="black" points="141.87,-57.33 137.73,-47.58 134.89,-57.79 141.87,-57.33"/>
<text text-anchor="middle" x="128.49" y="-70.84" font-family="Times,serif" font-size="14.00">h:g/1.2</text>
</g>
<!-- 2 -->
<g id="node3" class="node">
<title>2</title>
<ellipse fill="none" stroke="black" cx="238.99" cy="-32.04" rx="18" ry="18"/>
<text text-anchor="middle" x="238.99" y="-27.84" font-family="Times,serif" font-size="14.00">2</text>
</g>
<!-- 1&#45;&gt;2 -->
<g id="edge3" class="edge">
<title>1&#45;&gt;2</title>
<path fill="none" stroke="black" d="M146.92,-32.04C164.19,-32.04 190.87,-32.04 210.9,-32.04"/>
<polygon fill="black" stroke="black" points="210.96,-35.54 220.96,-32.04 210.96,-28.54 210.96,-35.54"/>
<text text-anchor="middle" x="183.74" y="-34.84" font-family="Times,serif" font-size="14.00">d:c/1.2</text>
</g>
<!-- 3 -->
<g id="node4" class="node">
<title>3</title>
<ellipse fill="none" stroke="black" cx="361.18" cy="-32.04" rx="28.07" ry="28.07"/>
<ellipse fill="none" stroke="black" cx="361.18" cy="-32.04" rx="32.08" ry="32.08"/>
<text text-anchor="middle" x="361.18" y="-27.84" font-family="Times,serif" font-size="14.00">3/0.2</text>
</g>
<!-- 2&#45;&gt;3 -->
<g id="edge5" class="edge">
<title>2&#45;&gt;3</title>
<path fill="none" stroke="black" d="M257.21,-32.04C273.27,-32.04 297.87,-32.04 318.99,-32.04"/>
<polygon fill="black" stroke="black" points="319.03,-35.54 329.03,-32.04 319.03,-28.54 319.03,-35.54"/>
<text text-anchor="middle" x="293.06" y="-34.84" font-family="Times,serif" font-size="14.00">f:e/1.2</text>
</g>
</g>
</svg>
