<?xml version="1.0" encoding="UTF-8" standalone="no"?>
<!DOCTYPE svg PUBLIC "-//W3C//DTD SVG 1.1//EN"
 "http://www.w3.org/Graphics/SVG/1.1/DTD/svg11.dtd">
<!-- Generated by graphviz version 2.43.0 (0)
 -->
<!-- Title: FST Pages: 1 -->
<svg width="401pt" height="90pt"
 viewBox="0.00 0.00 401.20 90.04" xmlns="http://www.w3.org/2000/svg" xmlns:xlink="http://www.w3.org/1999/xlink">
<g id="graph0" class="graph" transform="scale(1 1) rotate(0) translate(4 86.04)">
<title>FST</title>
<polygon fill="white" stroke="transparent" points="-4,4 -4,-86.04 397.2,-86.04 397.2,4 -4,4"/>
<!-- 0 -->
<g id="node1" class="node">
<title>0</title>
<ellipse fill="none" stroke="black" stroke-width="2" cx="18" cy="-32.04" rx="18" ry="18"/>
<text text-anchor="middle" x="18" y="-27.84" font-family="Times,serif" font-size="14.00">0</text>
</g>
<!-- 1 -->
<g id="node2" class="node">
<title>1</title>
<ellipse fill="none" stroke="black" cx="127.71" cy="-32.04" rx="18" ry="18"/>
<text text-anchor="middle" x="127.71" y="-27.84" font-family="Times,serif" font-size="14.00">1</text>
</g>
<!-- 0&#45;&gt;1 -->
<g id="edge1" class="edge">
<title>0&#45;&gt;1</title>
<path fill="none" stroke="black" d="M36.3,-32.04C53.26,-32.04 79.38,-32.04 99.19,-32.04"/>
<polygon fill="black" stroke="black" points="99.45,-35.54 109.44,-32.04 99.44,-28.54 99.45,-35.54"/>
<text text-anchor="middle" x="72.85" y="-34.84" font-family="Times,serif" font-size="14.00">a:a/1.2</text>
</g>
<!-- 0&#45;&gt;1 -->
<g id="edge2" class="edge">
<title>0&#45;&gt;1</title>
<path fill="none" stroke="black" d="M33.72,-22.5C39.75,-19.12 46.96,-15.74 54,-14.04 70.29,-10.1 75.42,-10.1 91.71,-14.04 95.45,-14.95 99.23,-16.32 102.87,-17.92"/>
<polygon fill="black" stroke="black" points="101.48,-21.14 111.99,-22.5 104.62,-14.89 101.48,-21.14"/>
<text text-anchor="middle" x="72.85" y="-16.84" font-family="Times,serif" font-size="14.00">i:i/1.2</text>
</g>
<!-- 1&#45;&gt;1 -->
<g id="edge4" class="edge">
<title>1&#45;&gt;1</title>
<path fill="none" stroke="black" d="M118.47,-47.58C115.88,-57.95 118.95,-68.04 127.71,-68.04 133.45,-68.04 136.75,-63.69 137.61,-57.78"/>
<polygon fill="black" stroke="black" points="141.09,-57.33 136.94,-47.58 134.1,-57.79 141.09,-57.33"/>
<text text-anchor="middle" x="127.71" y="-70.84" font-family="Times,serif" font-size="14.00">g:g/1.2</text>
</g>
<!-- 2 -->
<g id="node3" class="node">
<title>2</title>
<ellipse fill="none" stroke="black" cx="237.41" cy="-32.04" rx="18" ry="18"/>
<text text-anchor="middle" x="237.41" y="-27.84" font-family="Times,serif" font-size="14.00">2</text>
</g>
<!-- 1&#45;&gt;2 -->
<g id="edge3" class="edge">
<title>1&#45;&gt;2</title>
<path fill="none" stroke="black" d="M146.01,-32.04C162.97,-32.04 189.09,-32.04 208.89,-32.04"/>
<polygon fill="black" stroke="black" points="209.15,-35.54 219.15,-32.04 209.15,-28.54 209.15,-35.54"/>
<text text-anchor="middle" x="182.56" y="-34.84" font-family="Times,serif" font-size="14.00">c:c/1.2</text>
</g>
<!-- 3 -->
<g id="node4" class="node">
<title>3</title>
<ellipse fill="none" stroke="black" cx="361.16" cy="-32.04" rx="28.07" ry="28.07"/>
<ellipse fill="none" stroke="black" cx="361.16" cy="-32.04" rx="32.08" ry="32.08"/>
<text text-anchor="middle" x="361.16" y="-27.84" font-family="Times,serif" font-size="14.00">3/0.2</text>
</g>
<!-- 2&#45;&gt;3 -->
<g id="edge5" class="edge">
<title>2&#45;&gt;3</title>
<path fill="none" stroke="black" d="M255.6,-32.04C271.93,-32.04 297.14,-32.04 318.71,-32.04"/>
<polygon fill="black" stroke="black" points="318.96,-35.54 328.96,-32.04 318.96,-28.54 318.96,-35.54"/>
<text text-anchor="middle" x="292.27" y="-34.84" font-family="Times,serif" font-size="14.00">e:e/1.2</text>
</g>
</g>
</svg>
