<?xml version="1.0" encoding="UTF-8" standalone="no"?>
<!DOCTYPE svg PUBLIC "-//W3C//DTD SVG 1.1//EN"
 "http://www.w3.org/Graphics/SVG/1.1/DTD/svg11.dtd">
<!-- Generated by graphviz version 2.43.0 (0)
 -->
<!-- Title: FST Pages: 1 -->
<svg width="401pt" height="90pt"
 viewBox="0.00 0.00 401.24 90.04" xmlns="http://www.w3.org/2000/svg" xmlns:xlink="http://www.w3.org/1999/xlink">
<g id="graph0" class="graph" transform="scale(1 1) rotate(0) translate(4 86.04)">
<title>FST</title>
<polygon fill="white" stroke="transparent" points="-4,4 -4,-86.04 397.24,-86.04 397.24,4 -4,4"/>
<!-- 0 -->
<g id="node1" class="node">
<title>0</title>
<ellipse fill="none" stroke="black" stroke-width="2" cx="18" cy="-32.04" rx="18" ry="18"/>
<text text-anchor="middle" x="18" y="-27.84" font-family="Times,serif" font-size="14.00">0</text>
</g>
<!-- 1 -->
<g id="node2" class="node">
<title>1</title>
<ellipse fill="none" stroke="black" cx="129.28" cy="-32.04" rx="18" ry="18"/>
<text text-anchor="middle" x="129.28" y="-27.84" font-family="Times,serif" font-size="14.00">1</text>
</g>
<!-- 0&#45;&gt;1 -->
<g id="edge1" class="edge">
<title>0&#45;&gt;1</title>
<path fill="none" stroke="black" d="M36.07,-32.04C53.38,-32.04 80.41,-32.04 100.75,-32.04"/>
<polygon fill="black" stroke="black" points="100.96,-35.54 110.96,-32.04 100.96,-28.54 100.96,-35.54"/>
<text text-anchor="middle" x="73.64" y="-34.84" font-family="Times,serif" font-size="14.00">b:b/1.2</text>
</g>
<!-- 0&#45;&gt;1 -->
<g id="edge2" class="edge">
<title>0&#45;&gt;1</title>
<path fill="none" stroke="black" d="M33.72,-22.5C39.75,-19.12 46.96,-15.74 54,-14.04 70.97,-9.93 76.31,-9.93 93.28,-14.04 97.02,-14.95 100.81,-16.32 104.44,-17.92"/>
<polygon fill="black" stroke="black" points="103.05,-21.14 113.56,-22.5 106.19,-14.89 103.05,-21.14"/>
<text text-anchor="middle" x="73.64" y="-16.84" font-family="Times,serif" font-size="14.00">j:j/1.2</text>
</g>
<!-- 1&#45;&gt;1 -->
<g id="edge4" class="edge">
<title>1&#45;&gt;1</title>
<path fill="none" stroke="black" d="M120.05,-47.58C117.45,-57.95 120.53,-68.04 129.28,-68.04 135.02,-68.04 138.32,-63.69 139.18,-57.78"/>
<polygon fill="black" stroke="black" points="142.66,-57.33 138.51,-47.58 135.67,-57.79 142.66,-57.33"/>
<text text-anchor="middle" x="129.28" y="-70.84" font-family="Times,serif" font-size="14.00">h:h/1.2</text>
</g>
<!-- 2 -->
<g id="node3" class="node">
<title>2</title>
<ellipse fill="none" stroke="black" cx="240.56" cy="-32.04" rx="18" ry="18"/>
<text text-anchor="middle" x="240.56" y="-27.84" font-family="Times,serif" font-size="14.00">2</text>
</g>
<!-- 1&#45;&gt;2 -->
<g id="edge3" class="edge">
<title>1&#45;&gt;2</title>
<path fill="none" stroke="black" d="M147.35,-32.04C164.65,-32.04 191.69,-32.04 212.03,-32.04"/>
<polygon fill="black" stroke="black" points="212.24,-35.54 222.24,-32.04 212.24,-28.54 212.24,-35.54"/>
<text text-anchor="middle" x="184.92" y="-34.84" font-family="Times,serif" font-size="14.00">d:d/1.2</text>
</g>
<!-- 3 -->
<g id="node4" class="node">
<title>3</title>
<ellipse fill="none" stroke="black" cx="361.2" cy="-32.04" rx="28.07" ry="28.07"/>
<ellipse fill="none" stroke="black" cx="361.2" cy="-32.04" rx="32.08" ry="32.08"/>
<text text-anchor="middle" x="361.2" y="-27.84" font-family="Times,serif" font-size="14.00">3/0.2</text>
</g>
<!-- 2&#45;&gt;3 -->
<g id="edge5" class="edge">
<title>2&#45;&gt;3</title>
<path fill="none" stroke="black" d="M258.81,-32.04C274.53,-32.04 298.38,-32.04 319,-32.04"/>
<polygon fill="black" stroke="black" points="319.12,-35.54 329.12,-32.04 319.12,-28.54 319.12,-35.54"/>
<text text-anchor="middle" x="293.86" y="-34.84" font-family="Times,serif" font-size="14.00">f:f/1.2</text>
</g>
</g>
</svg>
