<?xml version="1.0" encoding="UTF-8" standalone="no"?>
<!DOCTYPE svg PUBLIC "-//W3C//DTD SVG 1.1//EN"
 "http://www.w3.org/Graphics/SVG/1.1/DTD/svg11.dtd">
<!-- Generated by graphviz version 2.43.0 (0)
 -->
<!-- Title: FST Pages: 1 -->
<svg width="1166pt" height="56pt"
 viewBox="0.00 0.00 1165.66 55.87" xmlns="http://www.w3.org/2000/svg" xmlns:xlink="http://www.w3.org/1999/xlink">
<g id="graph0" class="graph" transform="scale(1 1) rotate(0) translate(4 51.87)">
<title>FST</title>
<polygon fill="white" stroke="transparent" points="-4,4 -4,-51.87 1161.66,-51.87 1161.66,4 -4,4"/>
<!-- 0 -->
<g id="node1" class="node">
<title>0</title>
<ellipse fill="none" stroke="black" stroke-width="2" cx="18" cy="-25.87" rx="18" ry="18"/>
<text text-anchor="middle" x="18" y="-21.67" font-family="Times,serif" font-size="14.00">0</text>
</g>
<!-- 1 -->
<g id="node2" class="node">
<title>1</title>
<ellipse fill="none" stroke="black" cx="134.3" cy="-25.87" rx="18" ry="18"/>
<text text-anchor="middle" x="134.3" y="-21.67" font-family="Times,serif" font-size="14.00">1</text>
</g>
<!-- 0&#45;&gt;1 -->
<g id="edge1" class="edge">
<title>0&#45;&gt;1</title>
<path fill="none" stroke="black" d="M36.36,-25.87C54.85,-25.87 84.36,-25.87 105.97,-25.87"/>
<polygon fill="black" stroke="black" points="106.15,-29.37 116.15,-25.87 106.15,-22.37 106.15,-29.37"/>
<text text-anchor="middle" x="76.15" y="-28.67" font-family="Times,serif" font-size="14.00">call:call</text>
</g>
<!-- 2 -->
<g id="node3" class="node">
<title>2</title>
<ellipse fill="none" stroke="black" cx="292.87" cy="-25.87" rx="18" ry="18"/>
<text text-anchor="middle" x="292.87" y="-21.67" font-family="Times,serif" font-size="14.00">2</text>
</g>
<!-- 1&#45;&gt;2 -->
<g id="edge2" class="edge">
<title>1&#45;&gt;2</title>
<path fill="none" stroke="black" d="M152.36,-25.87C179.41,-25.87 232.42,-25.87 264.74,-25.87"/>
<polygon fill="black" stroke="black" points="264.84,-29.37 274.84,-25.87 264.84,-22.37 264.84,-29.37"/>
<text text-anchor="middle" x="213.59" y="-28.67" font-family="Times,serif" font-size="14.00">#NAME:&lt;eps&gt;</text>
</g>
<!-- 3 -->
<g id="node4" class="node">
<title>3</title>
<ellipse fill="none" stroke="black" cx="496.55" cy="-25.87" rx="18" ry="18"/>
<text text-anchor="middle" x="496.55" y="-21.67" font-family="Times,serif" font-size="14.00">3</text>
</g>
<!-- 2&#45;&gt;3 -->
<g id="edge3" class="edge">
<title>2&#45;&gt;3</title>
<path fill="none" stroke="black" d="M311.06,-25.87C346.12,-25.87 426.08,-25.87 468.29,-25.87"/>
<polygon fill="black" stroke="black" points="468.4,-29.37 478.4,-25.87 468.4,-22.37 468.4,-29.37"/>
<text text-anchor="middle" x="394.71" y="-28.67" font-family="Times,serif" font-size="14.00">#FIRST_NAME:&lt;eps&gt;</text>
</g>
<!-- 4 -->
<g id="node5" class="node">
<title>4</title>
<ellipse fill="none" stroke="black" cx="634.65" cy="-25.87" rx="18" ry="18"/>
<text text-anchor="middle" x="634.65" y="-21.67" font-family="Times,serif" font-size="14.00">4</text>
</g>
<!-- 3&#45;&gt;4 -->
<g id="edge4" class="edge">
<title>3&#45;&gt;4</title>
<path fill="none" stroke="black" d="M514.79,-25.87C537.9,-25.87 579.18,-25.87 606.49,-25.87"/>
<polygon fill="black" stroke="black" points="606.55,-29.37 616.55,-25.87 606.55,-22.37 606.55,-29.37"/>
<text text-anchor="middle" x="565.6" y="-28.67" font-family="Times,serif" font-size="14.00">john:john</text>
</g>
<!-- 3&#45;&gt;4 -->
<g id="edge5" class="edge">
<title>3&#45;&gt;4</title>
<path fill="none" stroke="black" d="M512.27,-16.33C518.3,-12.95 525.52,-9.57 532.55,-7.87 561.11,-0.96 570.1,-0.96 598.65,-7.87 602.39,-8.77 606.18,-10.15 609.81,-11.75"/>
<polygon fill="black" stroke="black" points="608.43,-14.97 618.93,-16.33 611.57,-8.71 608.43,-14.97"/>
<text text-anchor="middle" x="565.6" y="-10.67" font-family="Times,serif" font-size="14.00">david:david</text>
</g>
<!-- 5 -->
<g id="node6" class="node">
<title>5</title>
<ellipse fill="none" stroke="black" cx="835.21" cy="-25.87" rx="18" ry="18"/>
<text text-anchor="middle" x="835.21" y="-21.67" font-family="Times,serif" font-size="14.00">5</text>
</g>
<!-- 4&#45;&gt;5 -->
<g id="edge6" class="edge">
<title>4&#45;&gt;5</title>
<path fill="none" stroke="black" d="M652.93,-25.87C687.48,-25.87 765.37,-25.87 806.91,-25.87"/>
<polygon fill="black" stroke="black" points="807.12,-29.37 817.12,-25.87 807.12,-22.37 807.12,-29.37"/>
<text text-anchor="middle" x="734.93" y="-28.67" font-family="Times,serif" font-size="14.00">#LAST_NAME:&lt;eps&gt;</text>
</g>
<!-- 6 -->
<g id="node7" class="node">
<title>6</title>
<ellipse fill="none" stroke="black" cx="1007.55" cy="-25.87" rx="18" ry="18"/>
<text text-anchor="middle" x="1007.55" y="-21.67" font-family="Times,serif" font-size="14.00">6</text>
</g>
<!-- 5&#45;&gt;6 -->
<g id="edge7" class="edge">
<title>5&#45;&gt;6</title>
<path fill="none" stroke="black" d="M853.48,-25.87C883.15,-25.87 943.99,-25.87 979.38,-25.87"/>
<polygon fill="black" stroke="black" points="979.48,-29.37 989.48,-25.87 979.48,-22.37 979.48,-29.37"/>
<text text-anchor="middle" x="921.38" y="-28.67" font-family="Times,serif" font-size="14.00">williams:williams</text>
</g>
<!-- 5&#45;&gt;6 -->
<g id="edge8" class="edge">
<title>5&#45;&gt;6</title>
<path fill="none" stroke="black" d="M850.93,-16.33C856.96,-12.95 864.18,-9.57 871.21,-7.87 914.55,2.62 928.21,2.62 971.55,-7.87 975.29,-8.77 979.07,-10.15 982.71,-11.75"/>
<polygon fill="black" stroke="black" points="981.32,-14.97 991.83,-16.33 984.46,-8.71 981.32,-14.97"/>
<text text-anchor="middle" x="921.38" y="-10.67" font-family="Times,serif" font-size="14.00">bowie:bowie</text>
</g>
<!-- 7 -->
<g id="node8" class="node">
<title>7</title>
<ellipse fill="none" stroke="black" cx="1135.66" cy="-25.87" rx="18" ry="18"/>
<ellipse fill="none" stroke="black" cx="1135.66" cy="-25.87" rx="22" ry="22"/>
<text text-anchor="middle" x="1135.66" y="-21.67" font-family="Times,serif" font-size="14.00">7</text>
</g>
<!-- 6&#45;&gt;7 -->
<g id="edge9" class="edge">
<title>6&#45;&gt;7</title>
<path fill="none" stroke="black" d="M1025.55,-25.87C1045.35,-25.87 1078.46,-25.87 1103.02,-25.87"/>
<polygon fill="black" stroke="black" points="1103.29,-29.37 1113.29,-25.87 1103.29,-22.37 1103.29,-29.37"/>
<text text-anchor="middle" x="1069.6" y="-28.67" font-family="Times,serif" font-size="14.00">now:now</text>
</g>
</g>
</svg>
