<?xml version="1.0" encoding="UTF-8" standalone="no"?>
<!DOCTYPE svg PUBLIC "-//W3C//DTD SVG 1.1//EN"
 "http://www.w3.org/Graphics/SVG/1.1/DTD/svg11.dtd">
<!-- Generated by graphviz version 2.43.0 (0)
 -->
<!-- Title: FST Pages: 1 -->
<svg width="190pt" height="53pt"
 viewBox="0.00 0.00 190.10 53.03" xmlns="http://www.w3.org/2000/svg" xmlns:xlink="http://www.w3.org/1999/xlink">
<g id="graph0" class="graph" transform="scale(1 1) rotate(0) translate(4 49.03)">
<title>FST</title>
<polygon fill="white" stroke="transparent" points="-4,4 -4,-49.03 186.1,-49.03 186.1,4 -4,4"/>
<!-- 0 -->
<g id="node1" class="node">
<title>0</title>
<ellipse fill="none" stroke="black" stroke-width="2" cx="18" cy="-23.03" rx="18" ry="18"/>
<text text-anchor="middle" x="18" y="-18.83" font-family="Times,serif" font-size="14.00">0</text>
</g>
<!-- 1 -->
<g id="node2" class="node">
<title>1</title>
<ellipse fill="none" stroke="black" cx="160.1" cy="-23.03" rx="18" ry="18"/>
<ellipse fill="none" stroke="black" cx="160.1" cy="-23.03" rx="22" ry="22"/>
<text text-anchor="middle" x="160.1" y="-18.83" font-family="Times,serif" font-size="14.00">1</text>
</g>
<!-- 0&#45;&gt;1 -->
<g id="edge1" class="edge">
<title>0&#45;&gt;1</title>
<path fill="none" stroke="black" d="M36.18,-23.03C58.85,-23.03 99.2,-23.03 127.47,-23.03"/>
<polygon fill="black" stroke="black" points="127.65,-26.53 137.65,-23.03 127.65,-19.53 127.65,-26.53"/>
<text text-anchor="middle" x="87.05" y="-25.83" font-family="Times,serif" font-size="14.00">david:david</text>
</g>
<!-- 0&#45;&gt;1 -->
<g id="edge2" class="edge">
<title>0&#45;&gt;1</title>
<path fill="none" stroke="black" d="M33.72,-13.49C39.75,-10.11 46.96,-6.74 54,-5.03 82.55,1.88 91.4,1.27 120.1,-5.03 123.81,-5.85 127.59,-7.05 131.27,-8.46"/>
<polygon fill="black" stroke="black" points="130.06,-11.75 140.63,-12.53 132.85,-5.33 130.06,-11.75"/>
<text text-anchor="middle" x="87.05" y="-7.83" font-family="Times,serif" font-size="14.00">john:john</text>
</g>
</g>
</svg>
