<?xml version="1.0" encoding="UTF-8" standalone="no"?>
<!DOCTYPE svg PUBLIC "-//W3C//DTD SVG 1.1//EN"
 "http://www.w3.org/Graphics/SVG/1.1/DTD/svg11.dtd">
<!-- Generated by graphviz version 2.43.0 (0)
 -->
<!-- Title: FST Pages: 1 -->
<svg width="224pt" height="56pt"
 viewBox="0.00 0.00 224.33 55.58" xmlns="http://www.w3.org/2000/svg" xmlns:xlink="http://www.w3.org/1999/xlink">
<g id="graph0" class="graph" transform="scale(1 1) rotate(0) translate(4 51.58)">
<title>FST</title>
<polygon fill="white" stroke="transparent" points="-4,4 -4,-51.58 220.33,-51.58 220.33,4 -4,4"/>
<!-- 0 -->
<g id="node1" class="node">
<title>0</title>
<ellipse fill="none" stroke="black" stroke-width="2" cx="18" cy="-25.58" rx="18" ry="18"/>
<text text-anchor="middle" x="18" y="-21.38" font-family="Times,serif" font-size="14.00">0</text>
</g>
<!-- 1 -->
<g id="node2" class="node">
<title>1</title>
<ellipse fill="none" stroke="black" cx="194.33" cy="-25.58" rx="18" ry="18"/>
<ellipse fill="none" stroke="black" cx="194.33" cy="-25.58" rx="22" ry="22"/>
<text text-anchor="middle" x="194.33" y="-21.38" font-family="Times,serif" font-size="14.00">1</text>
</g>
<!-- 0&#45;&gt;1 -->
<g id="edge1" class="edge">
<title>0&#45;&gt;1</title>
<path fill="none" stroke="black" d="M36.03,-25.58C65.2,-25.58 125.11,-25.58 161.99,-25.58"/>
<polygon fill="black" stroke="black" points="162.19,-29.08 172.19,-25.58 162.19,-22.08 162.19,-29.08"/>
<text text-anchor="middle" x="104.17" y="-28.38" font-family="Times,serif" font-size="14.00">bowie:bowie</text>
</g>
<!-- 0&#45;&gt;1 -->
<g id="edge2" class="edge">
<title>0&#45;&gt;1</title>
<path fill="none" stroke="black" d="M33.72,-16.04C39.75,-12.66 46.96,-9.28 54,-7.58 97.34,2.91 110.78,1.99 154.33,-7.58 158.05,-8.4 161.83,-9.6 165.5,-11.01"/>
<polygon fill="black" stroke="black" points="164.3,-14.3 174.86,-15.07 167.09,-7.88 164.3,-14.3"/>
<text text-anchor="middle" x="104.17" y="-10.38" font-family="Times,serif" font-size="14.00">williams:williams</text>
</g>
</g>
</svg>
