<?xml version="1.0" encoding="UTF-8" standalone="no"?>
<!DOCTYPE svg PUBLIC "-//W3C//DTD SVG 1.1//EN"
 "http://www.w3.org/Graphics/SVG/1.1/DTD/svg11.dtd">
<!-- Generated by graphviz version 2.43.0 (0)
 -->
<!-- Title: FST Pages: 1 -->
<svg width="571pt" height="52pt"
 viewBox="0.00 0.00 570.91 52.00" xmlns="http://www.w3.org/2000/svg" xmlns:xlink="http://www.w3.org/1999/xlink">
<g id="graph0" class="graph" transform="scale(1 1) rotate(0) translate(4 48)">
<title>FST</title>
<polygon fill="white" stroke="transparent" points="-4,4 -4,-48 566.91,-48 566.91,4 -4,4"/>
<!-- 0 -->
<g id="node1" class="node">
<title>0</title>
<ellipse fill="none" stroke="black" stroke-width="2" cx="18" cy="-22" rx="18" ry="18"/>
<text text-anchor="middle" x="18" y="-17.8" font-family="Times,serif" font-size="14.00">0</text>
</g>
<!-- 1 -->
<g id="node2" class="node">
<title>1</title>
<ellipse fill="none" stroke="black" cx="280.58" cy="-22" rx="18" ry="18"/>
<text text-anchor="middle" x="280.58" y="-17.8" font-family="Times,serif" font-size="14.00">1</text>
</g>
<!-- 0&#45;&gt;1 -->
<g id="edge1" class="edge">
<title>0&#45;&gt;1</title>
<path fill="none" stroke="black" d="M36.1,-22C80.27,-22 198.49,-22 252.27,-22"/>
<polygon fill="black" stroke="black" points="252.42,-25.5 262.42,-22 252.42,-18.5 252.42,-25.5"/>
<text text-anchor="middle" x="149.29" y="-24.8" font-family="Times,serif" font-size="14.00">#FIRST_NAME:#FIRST_NAME</text>
</g>
<!-- 2 -->
<g id="node3" class="node">
<title>2</title>
<ellipse fill="none" stroke="black" cx="540.91" cy="-22" rx="18" ry="18"/>
<ellipse fill="none" stroke="black" cx="540.91" cy="-22" rx="22" ry="22"/>
<text text-anchor="middle" x="540.91" y="-17.8" font-family="Times,serif" font-size="14.00">2</text>
</g>
<!-- 1&#45;&gt;2 -->
<g id="edge2" class="edge">
<title>1&#45;&gt;2</title>
<path fill="none" stroke="black" d="M298.93,-22C341.88,-22 453.65,-22 508.55,-22"/>
<polygon fill="black" stroke="black" points="508.74,-25.5 518.74,-22 508.74,-18.5 508.74,-25.5"/>
<text text-anchor="middle" x="408.74" y="-24.8" font-family="Times,serif" font-size="14.00">#LAST_NAME:#LAST_NAME</text>
</g>
</g>
</svg>
