<?xml version="1.0" encoding="UTF-8" standalone="no"?>
<!DOCTYPE svg PUBLIC "-//W3C//DTD SVG 1.1//EN"
 "http://www.w3.org/Graphics/SVG/1.1/DTD/svg11.dtd">
<!-- Generated by graphviz version 2.43.0 (0)
 -->
<!-- Title: FST Pages: 1 -->
<svg width="1602pt" height="57pt"
 viewBox="0.00 0.00 1601.94 56.82" xmlns="http://www.w3.org/2000/svg" xmlns:xlink="http://www.w3.org/1999/xlink">
<g id="graph0" class="graph" transform="scale(1 1) rotate(0) translate(4 52.82)">
<title>FST</title>
<polygon fill="white" stroke="transparent" points="-4,4 -4,-52.82 1597.94,-52.82 1597.94,4 -4,4"/>
<!-- 0 -->
<g id="node1" class="node">
<title>0</title>
<ellipse fill="none" stroke="black" stroke-width="2" cx="18" cy="-25.87" rx="18" ry="18"/>
<text text-anchor="middle" x="18" y="-21.67" font-family="Times,serif" font-size="14.00">0</text>
</g>
<!-- 1 -->
<g id="node2" class="node">
<title>1</title>
<ellipse fill="none" stroke="black" cx="134.3" cy="-25.87" rx="18" ry="18"/>
<text text-anchor="middle" x="134.3" y="-21.67" font-family="Times,serif" font-size="14.00">1</text>
</g>
<!-- 0&#45;&gt;1 -->
<g id="edge1" class="edge">
<title>0&#45;&gt;1</title>
<path fill="none" stroke="black" d="M36.36,-25.87C54.85,-25.87 84.36,-25.87 105.97,-25.87"/>
<polygon fill="black" stroke="black" points="106.15,-29.37 116.15,-25.87 106.15,-22.37 106.15,-29.37"/>
<text text-anchor="middle" x="76.15" y="-28.67" font-family="Times,serif" font-size="14.00">call:call</text>
</g>
<!-- 2 -->
<g id="node3" class="node">
<title>2</title>
<ellipse fill="none" stroke="black" cx="292.87" cy="-25.87" rx="18" ry="18"/>
<text text-anchor="middle" x="292.87" y="-21.67" font-family="Times,serif" font-size="14.00">2</text>
</g>
<!-- 1&#45;&gt;2 -->
<g id="edge2" class="edge">
<title>1&#45;&gt;2</title>
<path fill="none" stroke="black" d="M152.36,-25.87C179.41,-25.87 232.42,-25.87 264.74,-25.87"/>
<polygon fill="black" stroke="black" points="264.84,-29.37 274.84,-25.87 264.84,-22.37 264.84,-29.37"/>
<text text-anchor="middle" x="213.59" y="-28.67" font-family="Times,serif" font-size="14.00">#NAME:&lt;eps&gt;</text>
</g>
<!-- 3 -->
<g id="node4" class="node">
<title>3</title>
<ellipse fill="none" stroke="black" cx="496.55" cy="-25.87" rx="18" ry="18"/>
<text text-anchor="middle" x="496.55" y="-21.67" font-family="Times,serif" font-size="14.00">3</text>
</g>
<!-- 2&#45;&gt;3 -->
<g id="edge3" class="edge">
<title>2&#45;&gt;3</title>
<path fill="none" stroke="black" d="M311.06,-25.87C346.12,-25.87 426.08,-25.87 468.29,-25.87"/>
<polygon fill="black" stroke="black" points="468.4,-29.37 478.4,-25.87 468.4,-22.37 468.4,-29.37"/>
<text text-anchor="middle" x="394.71" y="-28.67" font-family="Times,serif" font-size="14.00">#FIRST_NAME:&lt;eps&gt;</text>
</g>
<!-- 4 -->
<g id="node5" class="node">
<title>4</title>
<ellipse fill="none" stroke="black" cx="634.65" cy="-25.87" rx="18" ry="18"/>
<text text-anchor="middle" x="634.65" y="-21.67" font-family="Times,serif" font-size="14.00">4</text>
</g>
<!-- 3&#45;&gt;4 -->
<g id="edge4" class="edge">
<title>3&#45;&gt;4</title>
<path fill="none" stroke="black" d="M514.79,-25.87C537.9,-25.87 579.18,-25.87 606.49,-25.87"/>
<polygon fill="black" stroke="black" points="606.55,-29.37 616.55,-25.87 606.55,-22.37 606.55,-29.37"/>
<text text-anchor="middle" x="565.6" y="-28.67" font-family="Times,serif" font-size="14.00">david:david</text>
</g>
<!-- 3&#45;&gt;4 -->
<g id="edge5" class="edge">
<title>3&#45;&gt;4</title>
<path fill="none" stroke="black" d="M512.27,-16.33C518.3,-12.95 525.52,-9.57 532.55,-7.87 561.11,-0.96 570.1,-0.96 598.65,-7.87 602.39,-8.77 606.18,-10.15 609.81,-11.75"/>
<polygon fill="black" stroke="black" points="608.43,-14.97 618.93,-16.33 611.57,-8.71 608.43,-14.97"/>
<text text-anchor="middle" x="565.6" y="-10.67" font-family="Times,serif" font-size="14.00">john:john</text>
</g>
<!-- 5 -->
<g id="node6" class="node">
<title>5</title>
<ellipse fill="none" stroke="black" cx="779.45" cy="-25.87" rx="18" ry="18"/>
<text text-anchor="middle" x="779.45" y="-21.67" font-family="Times,serif" font-size="14.00">5</text>
</g>
<!-- 4&#45;&gt;5 -->
<g id="edge6" class="edge">
<title>4&#45;&gt;5</title>
<path fill="none" stroke="black" d="M652.88,-25.87C677.21,-25.87 721.92,-25.87 750.9,-25.87"/>
<polygon fill="black" stroke="black" points="751.16,-29.37 761.16,-25.87 751.16,-22.37 751.16,-29.37"/>
<text text-anchor="middle" x="707.05" y="-28.67" font-family="Times,serif" font-size="14.00">&lt;eps&gt;:&lt;eps&gt;</text>
</g>
<!-- 6 -->
<g id="node7" class="node">
<title>6</title>
<ellipse fill="none" stroke="black" cx="980.01" cy="-25.87" rx="18" ry="18"/>
<text text-anchor="middle" x="980.01" y="-21.67" font-family="Times,serif" font-size="14.00">6</text>
</g>
<!-- 5&#45;&gt;6 -->
<g id="edge7" class="edge">
<title>5&#45;&gt;6</title>
<path fill="none" stroke="black" d="M797.72,-25.87C832.28,-25.87 910.17,-25.87 951.71,-25.87"/>
<polygon fill="black" stroke="black" points="951.92,-29.37 961.92,-25.87 951.92,-22.37 951.92,-29.37"/>
<text text-anchor="middle" x="879.73" y="-28.67" font-family="Times,serif" font-size="14.00">#LAST_NAME:&lt;eps&gt;</text>
</g>
<!-- 7 -->
<g id="node8" class="node">
<title>7</title>
<ellipse fill="none" stroke="black" cx="1152.34" cy="-25.87" rx="18" ry="18"/>
<text text-anchor="middle" x="1152.34" y="-21.67" font-family="Times,serif" font-size="14.00">7</text>
</g>
<!-- 6&#45;&gt;7 -->
<g id="edge8" class="edge">
<title>6&#45;&gt;7</title>
<path fill="none" stroke="black" d="M998.28,-25.87C1027.94,-25.87 1088.79,-25.87 1124.18,-25.87"/>
<polygon fill="black" stroke="black" points="1124.28,-29.37 1134.28,-25.87 1124.28,-22.37 1124.28,-29.37"/>
<text text-anchor="middle" x="1066.18" y="-28.67" font-family="Times,serif" font-size="14.00">bowie:bowie</text>
</g>
<!-- 6&#45;&gt;7 -->
<g id="edge9" class="edge">
<title>6&#45;&gt;7</title>
<path fill="none" stroke="black" d="M995.73,-16.33C1001.76,-12.95 1008.97,-9.57 1016.01,-7.87 1059.35,2.62 1073,2.62 1116.34,-7.87 1120.08,-8.77 1123.87,-10.15 1127.5,-11.75"/>
<polygon fill="black" stroke="black" points="1126.12,-14.97 1136.62,-16.33 1129.26,-8.71 1126.12,-14.97"/>
<text text-anchor="middle" x="1066.18" y="-10.67" font-family="Times,serif" font-size="14.00">williams:williams</text>
</g>
<!-- 8 -->
<g id="node9" class="node">
<title>8</title>
<ellipse fill="none" stroke="black" cx="1297.14" cy="-25.87" rx="18" ry="18"/>
<text text-anchor="middle" x="1297.14" y="-21.67" font-family="Times,serif" font-size="14.00">8</text>
</g>
<!-- 7&#45;&gt;8 -->
<g id="edge10" class="edge">
<title>7&#45;&gt;8</title>
<path fill="none" stroke="black" d="M1170.57,-25.87C1194.9,-25.87 1239.61,-25.87 1268.59,-25.87"/>
<polygon fill="black" stroke="black" points="1268.85,-29.37 1278.85,-25.87 1268.85,-22.37 1268.85,-29.37"/>
<text text-anchor="middle" x="1224.74" y="-28.67" font-family="Times,serif" font-size="14.00">&lt;eps&gt;:&lt;eps&gt;</text>
</g>
<!-- 9 -->
<g id="node10" class="node">
<title>9</title>
<ellipse fill="none" stroke="black" cx="1441.93" cy="-25.87" rx="18" ry="18"/>
<text text-anchor="middle" x="1441.93" y="-21.67" font-family="Times,serif" font-size="14.00">9</text>
</g>
<!-- 8&#45;&gt;9 -->
<g id="edge11" class="edge">
<title>8&#45;&gt;9</title>
<path fill="none" stroke="black" d="M1315.36,-25.87C1339.7,-25.87 1384.41,-25.87 1413.39,-25.87"/>
<polygon fill="black" stroke="black" points="1413.65,-29.37 1423.65,-25.87 1413.65,-22.37 1413.65,-29.37"/>
<text text-anchor="middle" x="1369.54" y="-28.67" font-family="Times,serif" font-size="14.00">&lt;eps&gt;:&lt;eps&gt;</text>
</g>
<!-- 10 -->
<g id="node11" class="node">
<title>10</title>
<ellipse fill="none" stroke="black" cx="1570.99" cy="-25.87" rx="18.91" ry="18.91"/>
<ellipse fill="none" stroke="black" cx="1570.99" cy="-25.87" rx="22.9" ry="22.9"/>
<text text-anchor="middle" x="1570.99" y="-21.67" font-family="Times,serif" font-size="14.00">10</text>
</g>
<!-- 9&#45;&gt;10 -->
<g id="edge12" class="edge">
<title>9&#45;&gt;10</title>
<path fill="none" stroke="black" d="M1460.07,-25.87C1479.98,-25.87 1513.27,-25.87 1538.01,-25.87"/>
<polygon fill="black" stroke="black" points="1538.03,-29.37 1548.03,-25.87 1538.03,-22.37 1538.03,-29.37"/>
<text text-anchor="middle" x="1503.99" y="-28.67" font-family="Times,serif" font-size="14.00">now:now</text>
</g>
</g>
</svg>
