<?xml version="1.0" encoding="UTF-8" standalone="no"?>
<!DOCTYPE svg PUBLIC "-//W3C//DTD SVG 1.1//EN"
 "http://www.w3.org/Graphics/SVG/1.1/DTD/svg11.dtd">
<!-- Generated by graphviz version 2.43.0 (0)
 -->
<!-- Title: FST Pages: 1 -->
<svg width="554pt" height="83pt"
 viewBox="0.00 0.00 554.14 83.41" xmlns="http://www.w3.org/2000/svg" xmlns:xlink="http://www.w3.org/1999/xlink">
<g id="graph0" class="graph" transform="scale(1 1) rotate(0) translate(4 79.41)">
<title>FST</title>
<polygon fill="white" stroke="transparent" points="-4,4 -4,-79.41 550.14,-79.41 550.14,4 -4,4"/>
<!-- 0 -->
<g id="node1" class="node">
<title>0</title>
<ellipse fill="none" stroke="black" stroke-width="2" cx="18" cy="-25.41" rx="18" ry="18"/>
<text text-anchor="middle" x="18" y="-21.21" font-family="Times,serif" font-size="14.00">0</text>
</g>
<!-- 4 -->
<g id="node2" class="node">
<title>4</title>
<ellipse fill="none" stroke="black" cx="184.19" cy="-25.41" rx="18" ry="18"/>
<text text-anchor="middle" x="184.19" y="-21.21" font-family="Times,serif" font-size="14.00">4</text>
</g>
<!-- 0&#45;&gt;4 -->
<g id="edge1" class="edge">
<title>0&#45;&gt;4</title>
<path fill="none" stroke="black" d="M36.26,-25.41C64.79,-25.41 122,-25.41 156,-25.41"/>
<polygon fill="black" stroke="black" points="156.16,-28.91 166.16,-25.41 156.16,-21.91 156.16,-28.91"/>
<text text-anchor="middle" x="101.09" y="-28.21" font-family="Times,serif" font-size="14.00">&lt;eps&gt;:&lt;eps&gt;/0.2</text>
</g>
<!-- 3 -->
<g id="node5" class="node">
<title>3</title>
<ellipse fill="none" stroke="black" cx="292.34" cy="-25.41" rx="18" ry="18"/>
<text text-anchor="middle" x="292.34" y="-21.21" font-family="Times,serif" font-size="14.00">3</text>
</g>
<!-- 4&#45;&gt;3 -->
<g id="edge6" class="edge">
<title>4&#45;&gt;3</title>
<path fill="none" stroke="black" d="M202.24,-25.41C218.96,-25.41 244.69,-25.41 264.22,-25.41"/>
<polygon fill="black" stroke="black" points="264.33,-28.91 274.33,-25.41 264.33,-21.91 264.33,-28.91"/>
<text text-anchor="middle" x="238.26" y="-28.21" font-family="Times,serif" font-size="14.00">e:f/1.2</text>
</g>
<!-- 1 -->
<g id="node3" class="node">
<title>1</title>
<ellipse fill="none" stroke="black" cx="520.73" cy="-25.41" rx="21.33" ry="21.33"/>
<ellipse fill="none" stroke="black" cx="520.73" cy="-25.41" rx="25.31" ry="25.31"/>
<text text-anchor="middle" x="520.73" y="-21.21" font-family="Times,serif" font-size="14.00">1/0</text>
</g>
<!-- 2 -->
<g id="node4" class="node">
<title>2</title>
<ellipse fill="none" stroke="black" cx="402.83" cy="-25.41" rx="18" ry="18"/>
<text text-anchor="middle" x="402.83" y="-21.21" font-family="Times,serif" font-size="14.00">2</text>
</g>
<!-- 2&#45;&gt;1 -->
<g id="edge2" class="edge">
<title>2&#45;&gt;1</title>
<path fill="none" stroke="black" d="M420.94,-25.41C437.74,-25.41 463.88,-25.41 485.04,-25.41"/>
<polygon fill="black" stroke="black" points="485.28,-28.91 495.28,-25.41 485.28,-21.91 485.28,-28.91"/>
<text text-anchor="middle" x="458.08" y="-28.21" font-family="Times,serif" font-size="14.00">a:b/1.2</text>
</g>
<!-- 2&#45;&gt;1 -->
<g id="edge3" class="edge">
<title>2&#45;&gt;1</title>
<path fill="none" stroke="black" d="M418.55,-15.86C424.58,-12.49 431.79,-9.11 438.83,-7.41 455.46,-3.38 460.56,-4 477.33,-7.41 480.99,-8.15 484.73,-9.23 488.4,-10.48"/>
<polygon fill="black" stroke="black" points="487.24,-13.79 497.83,-14.14 489.77,-7.26 487.24,-13.79"/>
<text text-anchor="middle" x="458.08" y="-10.21" font-family="Times,serif" font-size="14.00">i:j/1.2</text>
</g>
<!-- 2&#45;&gt;2 -->
<g id="edge4" class="edge">
<title>2&#45;&gt;2</title>
<path fill="none" stroke="black" d="M393.6,-40.95C391,-51.32 394.08,-61.41 402.83,-61.41 408.58,-61.41 411.88,-57.06 412.73,-51.14"/>
<polygon fill="black" stroke="black" points="416.21,-50.7 412.07,-40.95 409.23,-51.16 416.21,-50.7"/>
<text text-anchor="middle" x="402.83" y="-64.21" font-family="Times,serif" font-size="14.00">g:h/1.2</text>
</g>
<!-- 3&#45;&gt;2 -->
<g id="edge5" class="edge">
<title>3&#45;&gt;2</title>
<path fill="none" stroke="black" d="M310.77,-25.41C328.04,-25.41 354.72,-25.41 374.74,-25.41"/>
<polygon fill="black" stroke="black" points="374.8,-28.91 384.8,-25.41 374.8,-21.91 374.8,-28.91"/>
<text text-anchor="middle" x="347.59" y="-28.21" font-family="Times,serif" font-size="14.00">c:d/1.2</text>
</g>
</g>
</svg>
