<?xml version="1.0" encoding="UTF-8" standalone="no"?>
<!DOCTYPE svg PUBLIC "-//W3C//DTD SVG 1.1//EN"
 "http://www.w3.org/Graphics/SVG/1.1/DTD/svg11.dtd">
<!-- Generated by graphviz version 2.43.0 (0)
 -->
<!-- Title: FST Pages: 1 -->
<svg width="539pt" height="90pt"
 viewBox="0.00 0.00 539.14 90.04" xmlns="http://www.w3.org/2000/svg" xmlns:xlink="http://www.w3.org/1999/xlink">
<g id="graph0" class="graph" transform="scale(1 1) rotate(0) translate(4 86.04)">
<title>FST</title>
<polygon fill="white" stroke="transparent" points="-4,4 -4,-86.04 535.14,-86.04 535.14,4 -4,4"/>
<!-- 0 -->
<g id="node1" class="node">
<title>0</title>
<ellipse fill="none" stroke="black" stroke-width="2" cx="18" cy="-32.04" rx="18" ry="18"/>
<text text-anchor="middle" x="18" y="-27.84" font-family="Times,serif" font-size="14.00">0</text>
</g>
<!-- 1 -->
<g id="node2" class="node">
<title>1</title>
<ellipse fill="none" stroke="black" cx="173.69" cy="-32.04" rx="18" ry="18"/>
<text text-anchor="middle" x="173.69" y="-27.84" font-family="Times,serif" font-size="14.00">1</text>
</g>
<!-- 0&#45;&gt;1 -->
<g id="edge1" class="edge">
<title>0&#45;&gt;1</title>
<path fill="none" stroke="black" d="M36.03,-32.04C62.46,-32.04 113.58,-32.04 145.26,-32.04"/>
<polygon fill="black" stroke="black" points="145.58,-35.54 155.58,-32.04 145.57,-28.54 145.58,-35.54"/>
<text text-anchor="middle" x="95.84" y="-34.84" font-family="Times,serif" font-size="14.00">&lt;eps&gt;:&lt;eps&gt;/1</text>
</g>
<!-- 2 -->
<g id="node3" class="node">
<title>2</title>
<ellipse fill="none" stroke="black" cx="329.37" cy="-32.04" rx="18" ry="18"/>
<text text-anchor="middle" x="329.37" y="-27.84" font-family="Times,serif" font-size="14.00">2</text>
</g>
<!-- 1&#45;&gt;2 -->
<g id="edge2" class="edge">
<title>1&#45;&gt;2</title>
<path fill="none" stroke="black" d="M189.93,-40.16C195.91,-42.92 202.95,-45.66 209.69,-47.04 246.12,-54.52 256.94,-54.52 293.37,-47.04 296.84,-46.33 300.4,-45.25 303.85,-44"/>
<polygon fill="black" stroke="black" points="305.23,-47.22 313.13,-40.16 302.55,-40.75 305.23,-47.22"/>
<text text-anchor="middle" x="251.53" y="-54.84" font-family="Times,serif" font-size="14.00">a:&lt;eps&gt;/2</text>
</g>
<!-- 1&#45;&gt;2 -->
<g id="edge3" class="edge">
<title>1&#45;&gt;2</title>
<path fill="none" stroke="black" d="M191.76,-30.28C197.45,-29.77 203.84,-29.29 209.69,-29.04 246.85,-27.45 256.21,-27.45 293.37,-29.04 295.93,-29.15 298.59,-29.3 301.25,-29.49"/>
<polygon fill="black" stroke="black" points="301.05,-32.98 311.3,-30.28 301.61,-26 301.05,-32.98"/>
<text text-anchor="middle" x="251.53" y="-31.84" font-family="Times,serif" font-size="14.00">&lt;eps&gt;:b/3</text>
</g>
<!-- 1&#45;&gt;2 -->
<g id="edge4" class="edge">
<title>1&#45;&gt;2</title>
<path fill="none" stroke="black" d="M188.04,-20.61C194.21,-16.07 201.88,-11.37 209.69,-9.04 245.32,1.62 257.74,1.62 293.37,-9.04 297.88,-10.39 302.35,-12.53 306.51,-14.97"/>
<polygon fill="black" stroke="black" points="304.74,-18 315.01,-20.61 308.61,-12.17 304.74,-18"/>
<text text-anchor="middle" x="251.53" y="-11.84" font-family="Times,serif" font-size="14.00">&lt;eps&gt;:&lt;eps&gt;/4</text>
</g>
<!-- 2&#45;&gt;2 -->
<g id="edge5" class="edge">
<title>2&#45;&gt;2</title>
<path fill="none" stroke="black" d="M317.13,-45.71C312.23,-56.7 316.31,-68.04 329.37,-68.04 338.35,-68.04 343.09,-62.68 343.58,-55.76"/>
<polygon fill="black" stroke="black" points="346.97,-54.85 341.62,-45.71 340.1,-56.19 346.97,-54.85"/>
<text text-anchor="middle" x="329.37" y="-70.84" font-family="Times,serif" font-size="14.00">&lt;eps&gt;:&lt;eps&gt;/5</text>
</g>
<!-- 3 -->
<g id="node4" class="node">
<title>3</title>
<ellipse fill="none" stroke="black" cx="499.1" cy="-32.04" rx="28.07" ry="28.07"/>
<ellipse fill="none" stroke="black" cx="499.1" cy="-32.04" rx="32.08" ry="32.08"/>
<text text-anchor="middle" x="499.1" y="-27.84" font-family="Times,serif" font-size="14.00">3/2.3</text>
</g>
<!-- 2&#45;&gt;3 -->
<g id="edge6" class="edge">
<title>2&#45;&gt;3</title>
<path fill="none" stroke="black" d="M347.38,-32.04C372.74,-32.04 421.24,-32.04 456.39,-32.04"/>
<polygon fill="black" stroke="black" points="456.83,-35.54 466.83,-32.04 456.83,-28.54 456.83,-35.54"/>
<text text-anchor="middle" x="407.21" y="-34.84" font-family="Times,serif" font-size="14.00">&lt;eps&gt;:&lt;eps&gt;/6</text>
</g>
</g>
</svg>
