<?xml version="1.0" encoding="UTF-8" standalone="no"?>
<!DOCTYPE svg PUBLIC "-//W3C//DTD SVG 1.1//EN"
 "http://www.w3.org/Graphics/SVG/1.1/DTD/svg11.dtd">
<!-- Generated by graphviz version 2.43.0 (0)
 -->
<!-- Title: FST Pages: 1 -->
<svg width="237pt" height="81pt"
 viewBox="0.00 0.00 237.24 80.92" xmlns="http://www.w3.org/2000/svg" xmlns:xlink="http://www.w3.org/1999/xlink">
<g id="graph0" class="graph" transform="scale(1 1) rotate(0) translate(4 76.92)">
<title>FST</title>
<polygon fill="white" stroke="transparent" points="-4,4 -4,-76.92 233.24,-76.92 233.24,4 -4,4"/>
<!-- 0 -->
<g id="node1" class="node">
<title>0</title>
<ellipse fill="none" stroke="black" stroke-width="2" cx="36.46" cy="-36.46" rx="32.43" ry="32.43"/>
<ellipse fill="none" stroke="black" stroke-width="2" cx="36.46" cy="-36.46" rx="36.42" ry="36.42"/>
<text text-anchor="middle" x="36.46" y="-32.26" font-family="Times,serif" font-size="14.00">0/13.3</text>
</g>
<!-- 1 -->
<g id="node2" class="node">
<title>1</title>
<ellipse fill="none" stroke="black" cx="197.2" cy="-36.46" rx="28.07" ry="28.07"/>
<ellipse fill="none" stroke="black" cx="197.2" cy="-36.46" rx="32.08" ry="32.08"/>
<text text-anchor="middle" x="197.2" y="-32.26" font-family="Times,serif" font-size="14.00">1/8.3</text>
</g>
<!-- 0&#45;&gt;1 -->
<g id="edge1" class="edge">
<title>0&#45;&gt;1</title>
<path fill="none" stroke="black" d="M73.08,-36.46C97.35,-36.46 129.54,-36.46 154.92,-36.46"/>
<polygon fill="black" stroke="black" points="154.98,-39.96 164.98,-36.46 154.98,-32.96 154.98,-39.96"/>
<text text-anchor="middle" x="119.04" y="-39.26" font-family="Times,serif" font-size="14.00">&lt;eps&gt;:b/4</text>
</g>
<!-- 0&#45;&gt;1 -->
<g id="edge2" class="edge">
<title>0&#45;&gt;1</title>
<path fill="none" stroke="black" d="M70.69,-23.43C77.3,-21.37 84.25,-19.55 90.92,-18.46 115.59,-14.42 122.55,-14.09 147.16,-18.46 150.65,-19.08 154.23,-19.94 157.78,-20.94"/>
<polygon fill="black" stroke="black" points="157.03,-24.37 167.62,-24.07 159.15,-17.7 157.03,-24.37"/>
<text text-anchor="middle" x="119.04" y="-21.26" font-family="Times,serif" font-size="14.00">a:&lt;eps&gt;/3</text>
</g>
</g>
</svg>
