<?xml version="1.0" encoding="UTF-8" standalone="no"?>
<!DOCTYPE svg PUBLIC "-//W3C//DTD SVG 1.1//EN"
 "http://www.w3.org/Graphics/SVG/1.1/DTD/svg11.dtd">
<!-- Generated by graphviz version 2.43.0 (0)
 -->
<!-- Title: FST Pages: 1 -->
<svg width="698pt" height="98pt"
 viewBox="0.00 0.00 697.84 98.00" xmlns="http://www.w3.org/2000/svg" xmlns:xlink="http://www.w3.org/1999/xlink">
<g id="graph0" class="graph" transform="scale(1 1) rotate(0) translate(4 94)">
<title>FST</title>
<polygon fill="white" stroke="transparent" points="-4,4 -4,-94 693.84,-94 693.84,4 -4,4"/>
<!-- 0 -->
<g id="node1" class="node">
<title>0</title>
<ellipse fill="none" stroke="black" stroke-width="2" cx="18" cy="-44" rx="18" ry="18"/>
<text text-anchor="middle" x="18" y="-39.8" font-family="Times,serif" font-size="14.00">0</text>
</g>
<!-- 6 -->
<g id="node2" class="node">
<title>6</title>
<ellipse fill="none" stroke="black" cx="135.34" cy="-72" rx="18" ry="18"/>
<text text-anchor="middle" x="135.34" y="-67.8" font-family="Times,serif" font-size="14.00">6</text>
</g>
<!-- 0&#45;&gt;6 -->
<g id="edge1" class="edge">
<title>0&#45;&gt;6</title>
<path fill="none" stroke="black" d="M36.02,-48.13C54.95,-52.73 85.78,-60.21 107.87,-65.57"/>
<polygon fill="black" stroke="black" points="107.09,-68.98 117.63,-67.94 108.74,-62.18 107.09,-68.98"/>
<text text-anchor="middle" x="76.67" y="-64.8" font-family="Times,serif" font-size="14.00">&lt;eps&gt;/0</text>
</g>
<!-- 8 -->
<g id="node3" class="node">
<title>8</title>
<ellipse fill="none" stroke="black" cx="135.34" cy="-18" rx="18" ry="18"/>
<text text-anchor="middle" x="135.34" y="-13.8" font-family="Times,serif" font-size="14.00">8</text>
</g>
<!-- 0&#45;&gt;8 -->
<g id="edge2" class="edge">
<title>0&#45;&gt;8</title>
<path fill="none" stroke="black" d="M34.82,-37.38C40.75,-35.09 47.61,-32.69 54,-31 71.43,-26.4 91.44,-23.16 107.13,-21.06"/>
<polygon fill="black" stroke="black" points="107.73,-24.51 117.21,-19.79 106.85,-17.57 107.73,-24.51"/>
<text text-anchor="middle" x="76.67" y="-33.8" font-family="Times,serif" font-size="14.00">&lt;eps&gt;/0</text>
</g>
<!-- 5 -->
<g id="node8" class="node">
<title>5</title>
<ellipse fill="none" stroke="black" cx="306.69" cy="-72" rx="18" ry="18"/>
<text text-anchor="middle" x="306.69" y="-67.8" font-family="Times,serif" font-size="14.00">5</text>
</g>
<!-- 6&#45;&gt;5 -->
<g id="edge7" class="edge">
<title>6&#45;&gt;5</title>
<path fill="none" stroke="black" d="M153.51,-72C182.93,-72 243.18,-72 278.4,-72"/>
<polygon fill="black" stroke="black" points="278.47,-75.5 288.47,-72 278.47,-68.5 278.47,-75.5"/>
<text text-anchor="middle" x="194.01" y="-74.8" font-family="Times,serif" font-size="14.00">&lt;eps&gt;/0</text>
</g>
<!-- 7 -->
<g id="node9" class="node">
<title>7</title>
<ellipse fill="none" stroke="black" cx="252.69" cy="-18" rx="18" ry="18"/>
<text text-anchor="middle" x="252.69" y="-13.8" font-family="Times,serif" font-size="14.00">7</text>
</g>
<!-- 8&#45;&gt;7 -->
<g id="edge9" class="edge">
<title>8&#45;&gt;7</title>
<path fill="none" stroke="black" d="M153.36,-18C172.1,-18 202.5,-18 224.54,-18"/>
<polygon fill="black" stroke="black" points="224.6,-21.5 234.6,-18 224.6,-14.5 224.6,-21.5"/>
<text text-anchor="middle" x="194.01" y="-20.8" font-family="Times,serif" font-size="14.00">&lt;eps&gt;/0</text>
</g>
<!-- 1 -->
<g id="node4" class="node">
<title>1</title>
<ellipse fill="none" stroke="black" cx="664.43" cy="-45" rx="21.33" ry="21.33"/>
<ellipse fill="none" stroke="black" cx="664.43" cy="-45" rx="25.31" ry="25.31"/>
<text text-anchor="middle" x="664.43" y="-40.8" font-family="Times,serif" font-size="14.00">1/0</text>
</g>
<!-- 2 -->
<g id="node5" class="node">
<title>2</title>
<ellipse fill="none" stroke="black" cx="539.68" cy="-45" rx="18" ry="18"/>
<text text-anchor="middle" x="539.68" y="-40.8" font-family="Times,serif" font-size="14.00">2</text>
</g>
<!-- 2&#45;&gt;1 -->
<g id="edge3" class="edge">
<title>2&#45;&gt;1</title>
<path fill="none" stroke="black" d="M557.75,-45C576.03,-45 605.54,-45 628.73,-45"/>
<polygon fill="black" stroke="black" points="628.88,-48.5 638.88,-45 628.88,-41.5 628.88,-48.5"/>
<text text-anchor="middle" x="598.35" y="-47.8" font-family="Times,serif" font-size="14.00">&lt;eps&gt;/2</text>
</g>
<!-- 3 -->
<g id="node6" class="node">
<title>3</title>
<ellipse fill="none" stroke="black" cx="450.58" cy="-45" rx="18" ry="18"/>
<text text-anchor="middle" x="450.58" y="-40.8" font-family="Times,serif" font-size="14.00">3</text>
</g>
<!-- 3&#45;&gt;2 -->
<g id="edge4" class="edge">
<title>3&#45;&gt;2</title>
<path fill="none" stroke="black" d="M468.78,-45C480.95,-45 497.52,-45 511.46,-45"/>
<polygon fill="black" stroke="black" points="511.51,-48.5 521.51,-45 511.51,-41.5 511.51,-48.5"/>
<text text-anchor="middle" x="495.13" y="-47.8" font-family="Times,serif" font-size="14.00">c/4</text>
</g>
<!-- 4 -->
<g id="node7" class="node">
<title>4</title>
<ellipse fill="none" stroke="black" cx="360.69" cy="-18" rx="18" ry="18"/>
<text text-anchor="middle" x="360.69" y="-13.8" font-family="Times,serif" font-size="14.00">4</text>
</g>
<!-- 4&#45;&gt;3 -->
<g id="edge5" class="edge">
<title>4&#45;&gt;3</title>
<path fill="none" stroke="black" d="M378.22,-23.08C390.86,-26.96 408.55,-32.4 423.15,-36.88"/>
<polygon fill="black" stroke="black" points="422.53,-40.35 433.12,-39.94 424.59,-33.66 422.53,-40.35"/>
<text text-anchor="middle" x="405.63" y="-35.8" font-family="Times,serif" font-size="14.00">b/2</text>
</g>
<!-- 5&#45;&gt;3 -->
<g id="edge6" class="edge">
<title>5&#45;&gt;3</title>
<path fill="none" stroke="black" d="M324.52,-68.8C348.84,-64.17 394.05,-55.57 422.93,-50.07"/>
<polygon fill="black" stroke="black" points="423.59,-53.51 432.76,-48.2 422.29,-46.63 423.59,-53.51"/>
<text text-anchor="middle" x="360.69" y="-67.8" font-family="Times,serif" font-size="14.00">a/3</text>
</g>
<!-- 7&#45;&gt;4 -->
<g id="edge8" class="edge">
<title>7&#45;&gt;4</title>
<path fill="none" stroke="black" d="M270.72,-18C287.31,-18 312.8,-18 332.25,-18"/>
<polygon fill="black" stroke="black" points="332.34,-21.5 342.34,-18 332.34,-14.5 332.34,-21.5"/>
<text text-anchor="middle" x="306.69" y="-20.8" font-family="Times,serif" font-size="14.00">a/3</text>
</g>
</g>
</svg>
