<?xml version="1.0" encoding="UTF-8" standalone="no"?>
<!DOCTYPE svg PUBLIC "-//W3C//DTD SVG 1.1//EN"
 "http://www.w3.org/Graphics/SVG/1.1/DTD/svg11.dtd">
<!-- Generated by graphviz version 2.43.0 (0)
 -->
<!-- Title: FST Pages: 1 -->
<svg width="237pt" height="59pt"
 viewBox="0.00 0.00 237.02 58.81" xmlns="http://www.w3.org/2000/svg" xmlns:xlink="http://www.w3.org/1999/xlink">
<g id="graph0" class="graph" transform="scale(1 1) rotate(0) translate(4 54.81)">
<title>FST</title>
<polygon fill="white" stroke="transparent" points="-4,4 -4,-54.81 233.02,-54.81 233.02,4 -4,4"/>
<!-- 2 -->
<g id="node1" class="node">
<title>2</title>
<ellipse fill="none" stroke="black" stroke-width="2" cx="18" cy="-25.41" rx="18" ry="18"/>
<text text-anchor="middle" x="18" y="-21.21" font-family="Times,serif" font-size="14.00">2</text>
</g>
<!-- 1 -->
<g id="node2" class="node">
<title>1</title>
<ellipse fill="none" stroke="black" cx="107.1" cy="-25.41" rx="18" ry="18"/>
<text text-anchor="middle" x="107.1" y="-21.21" font-family="Times,serif" font-size="14.00">1</text>
</g>
<!-- 2&#45;&gt;1 -->
<g id="edge1" class="edge">
<title>2&#45;&gt;1</title>
<path fill="none" stroke="black" d="M36.21,-25.41C48.38,-25.41 64.94,-25.41 78.89,-25.41"/>
<polygon fill="black" stroke="black" points="78.93,-28.91 88.93,-25.41 78.93,-21.91 78.93,-28.91"/>
<text text-anchor="middle" x="62.55" y="-28.21" font-family="Times,serif" font-size="14.00">a/3</text>
</g>
<!-- 0 -->
<g id="node3" class="node">
<title>0</title>
<ellipse fill="none" stroke="black" cx="203.61" cy="-25.41" rx="21.33" ry="21.33"/>
<ellipse fill="none" stroke="black" cx="203.61" cy="-25.41" rx="25.31" ry="25.31"/>
<text text-anchor="middle" x="203.61" y="-21.21" font-family="Times,serif" font-size="14.00">0/2</text>
</g>
<!-- 1&#45;&gt;0 -->
<g id="edge2" class="edge">
<title>1&#45;&gt;0</title>
<path fill="none" stroke="black" d="M125.44,-25.41C137.27,-25.41 153.36,-25.41 167.79,-25.41"/>
<polygon fill="black" stroke="black" points="167.91,-28.91 177.91,-25.41 167.91,-21.91 167.91,-28.91"/>
<text text-anchor="middle" x="151.66" y="-28.21" font-family="Times,serif" font-size="14.00">c/4</text>
</g>
</g>
</svg>
