<?xml version="1.0" encoding="UTF-8" standalone="no"?>
<!DOCTYPE svg PUBLIC "-//W3C//DTD SVG 1.1//EN"
 "http://www.w3.org/Graphics/SVG/1.1/DTD/svg11.dtd">
<!-- Generated by graphviz version 2.43.0 (0)
 -->
<!-- Title: FST Pages: 1 -->
<svg width="238pt" height="130pt"
 viewBox="0.00 0.00 237.81 130.00" xmlns="http://www.w3.org/2000/svg" xmlns:xlink="http://www.w3.org/1999/xlink">
<g id="graph0" class="graph" transform="scale(1 1) rotate(0) translate(4 126)">
<title>FST</title>
<polygon fill="white" stroke="transparent" points="-4,4 -4,-126 233.81,-126 233.81,4 -4,4"/>
<!-- 0 -->
<g id="node1" class="node">
<title>0</title>
<ellipse fill="none" stroke="black" stroke-width="2" cx="18" cy="-44" rx="18" ry="18"/>
<text text-anchor="middle" x="18" y="-39.8" font-family="Times,serif" font-size="14.00">0</text>
</g>
<!-- 1 -->
<g id="node2" class="node">
<title>1</title>
<ellipse fill="none" stroke="black" cx="107.89" cy="-72" rx="18" ry="18"/>
<text text-anchor="middle" x="107.89" y="-67.8" font-family="Times,serif" font-size="14.00">1</text>
</g>
<!-- 0&#45;&gt;1 -->
<g id="edge1" class="edge">
<title>0&#45;&gt;1</title>
<path fill="none" stroke="black" d="M35.53,-49.27C48.3,-53.33 66.21,-59.04 80.89,-63.72"/>
<polygon fill="black" stroke="black" points="79.84,-67.06 90.43,-66.76 81.97,-60.39 79.84,-67.06"/>
<text text-anchor="middle" x="62.94" y="-62.8" font-family="Times,serif" font-size="14.00">a/3</text>
</g>
<!-- 2 -->
<g id="node3" class="node">
<title>2</title>
<ellipse fill="none" stroke="black" cx="107.89" cy="-18" rx="18" ry="18"/>
<text text-anchor="middle" x="107.89" y="-13.8" font-family="Times,serif" font-size="14.00">2</text>
</g>
<!-- 0&#45;&gt;2 -->
<g id="edge2" class="edge">
<title>0&#45;&gt;2</title>
<path fill="none" stroke="black" d="M34.9,-37.66C40.84,-35.4 47.68,-32.94 54,-31 62.48,-28.39 71.85,-25.95 80.32,-23.9"/>
<polygon fill="black" stroke="black" points="81.14,-27.3 90.08,-21.61 79.55,-20.49 81.14,-27.3"/>
<text text-anchor="middle" x="62.94" y="-33.8" font-family="Times,serif" font-size="14.00">d/5</text>
</g>
<!-- 1&#45;&gt;1 -->
<g id="edge3" class="edge">
<title>1&#45;&gt;1</title>
<path fill="none" stroke="black" d="M100.22,-88.29C98.37,-98.39 100.93,-108 107.89,-108 112.35,-108 115,-104.06 115.84,-98.57"/>
<polygon fill="black" stroke="black" points="119.34,-98.19 115.56,-88.29 112.34,-98.38 119.34,-98.19"/>
<text text-anchor="middle" x="107.89" y="-110.8" font-family="Times,serif" font-size="14.00">b/2</text>
</g>
<!-- 3 -->
<g id="node4" class="node">
<title>3</title>
<ellipse fill="none" stroke="black" cx="204.4" cy="-44" rx="21.33" ry="21.33"/>
<ellipse fill="none" stroke="black" cx="204.4" cy="-44" rx="25.31" ry="25.31"/>
<text text-anchor="middle" x="204.4" y="-39.8" font-family="Times,serif" font-size="14.00">3/2</text>
</g>
<!-- 1&#45;&gt;3 -->
<g id="edge4" class="edge">
<title>1&#45;&gt;3</title>
<path fill="none" stroke="black" d="M125.35,-67.12C137.56,-63.51 154.61,-58.45 169.67,-53.99"/>
<polygon fill="black" stroke="black" points="171.09,-57.22 179.69,-51.02 169.11,-50.51 171.09,-57.22"/>
<text text-anchor="middle" x="152.44" y="-63.8" font-family="Times,serif" font-size="14.00">c/4</text>
</g>
<!-- 2&#45;&gt;3 -->
<g id="edge5" class="edge">
<title>2&#45;&gt;3</title>
<path fill="none" stroke="black" d="M125.84,-21.99C136.06,-24.45 149.32,-27.76 160.99,-31 163.94,-31.82 166.99,-32.7 170.05,-33.59"/>
<polygon fill="black" stroke="black" points="169.11,-36.97 179.69,-36.49 171.12,-30.26 169.11,-36.97"/>
<text text-anchor="middle" x="152.44" y="-33.8" font-family="Times,serif" font-size="14.00">e/4</text>
</g>
</g>
</svg>
