<?xml version="1.0" encoding="UTF-8" standalone="no"?>
<!DOCTYPE svg PUBLIC "-//W3C//DTD SVG 1.1//EN"
 "http://www.w3.org/Graphics/SVG/1.1/DTD/svg11.dtd">
<!-- Generated by graphviz version 2.43.0 (0)
 -->
<!-- Title: FST Pages: 1 -->
<svg width="550pt" height="101pt"
 viewBox="0.00 0.00 550.33 101.00" xmlns="http://www.w3.org/2000/svg" xmlns:xlink="http://www.w3.org/1999/xlink">
<g id="graph0" class="graph" transform="scale(1 1) rotate(0) translate(4 97)">
<title>FST</title>
<polygon fill="white" stroke="transparent" points="-4,4 -4,-97 546.33,-97 546.33,4 -4,4"/>
<!-- 0 -->
<g id="node1" class="node">
<title>0</title>
<ellipse fill="none" stroke="black" stroke-width="2" cx="18" cy="-45" rx="18" ry="18"/>
<text text-anchor="middle" x="18" y="-40.8" font-family="Times,serif" font-size="14.00">0</text>
</g>
<!-- 1 -->
<g id="node2" class="node">
<title>1</title>
<ellipse fill="none" stroke="black" cx="124.45" cy="-75" rx="18" ry="18"/>
<text text-anchor="middle" x="124.45" y="-70.8" font-family="Times,serif" font-size="14.00">1</text>
</g>
<!-- 0&#45;&gt;1 -->
<g id="edge1" class="edge">
<title>0&#45;&gt;1</title>
<path fill="none" stroke="black" d="M35.78,-49.82C52.4,-54.59 78.09,-61.97 97.37,-67.51"/>
<polygon fill="black" stroke="black" points="96.48,-70.89 107.06,-70.29 98.41,-64.17 96.48,-70.89"/>
<text text-anchor="middle" x="71.23" y="-66.8" font-family="Times,serif" font-size="14.00">&lt;eps&gt;</text>
</g>
<!-- 3 -->
<g id="node3" class="node">
<title>3</title>
<ellipse fill="none" stroke="black" cx="281.67" cy="-45" rx="18" ry="18"/>
<text text-anchor="middle" x="281.67" y="-40.8" font-family="Times,serif" font-size="14.00">3</text>
</g>
<!-- 0&#45;&gt;3 -->
<g id="edge2" class="edge">
<title>0&#45;&gt;3</title>
<path fill="none" stroke="black" d="M36.17,-45C80.53,-45 199.24,-45 253.24,-45"/>
<polygon fill="black" stroke="black" points="253.44,-48.5 263.44,-45 253.44,-41.5 253.44,-48.5"/>
<text text-anchor="middle" x="163.56" y="-47.8" font-family="Times,serif" font-size="14.00">c</text>
</g>
<!-- 2 -->
<g id="node4" class="node">
<title>2</title>
<ellipse fill="none" stroke="black" cx="202.67" cy="-75" rx="18" ry="18"/>
<text text-anchor="middle" x="202.67" y="-70.8" font-family="Times,serif" font-size="14.00">2</text>
</g>
<!-- 1&#45;&gt;2 -->
<g id="edge3" class="edge">
<title>1&#45;&gt;2</title>
<path fill="none" stroke="black" d="M142.75,-75C152.1,-75 163.87,-75 174.43,-75"/>
<polygon fill="black" stroke="black" points="174.44,-78.5 184.44,-75 174.44,-71.5 174.44,-78.5"/>
<text text-anchor="middle" x="163.56" y="-77.8" font-family="Times,serif" font-size="14.00">a</text>
</g>
<!-- 4 -->
<g id="node5" class="node">
<title>4</title>
<ellipse fill="none" stroke="black" cx="360.67" cy="-45" rx="18" ry="18"/>
<text text-anchor="middle" x="360.67" y="-40.8" font-family="Times,serif" font-size="14.00">4</text>
</g>
<!-- 3&#45;&gt;4 -->
<g id="edge5" class="edge">
<title>3&#45;&gt;4</title>
<path fill="none" stroke="black" d="M299.76,-45C309.33,-45 321.48,-45 332.34,-45"/>
<polygon fill="black" stroke="black" points="332.63,-48.5 342.63,-45 332.63,-41.5 332.63,-48.5"/>
<text text-anchor="middle" x="321.17" y="-47.8" font-family="Times,serif" font-size="14.00">d</text>
</g>
<!-- 2&#45;&gt;3 -->
<g id="edge4" class="edge">
<title>2&#45;&gt;3</title>
<path fill="none" stroke="black" d="M219.62,-68.78C229.95,-64.76 243.61,-59.44 255.39,-54.85"/>
<polygon fill="black" stroke="black" points="256.69,-58.1 264.73,-51.21 254.14,-51.58 256.69,-58.1"/>
<text text-anchor="middle" x="242.17" y="-62.8" font-family="Times,serif" font-size="14.00">b</text>
</g>
<!-- 6 -->
<g id="node6" class="node">
<title>6</title>
<ellipse fill="none" stroke="black" cx="520.33" cy="-45" rx="18" ry="18"/>
<ellipse fill="none" stroke="black" cx="520.33" cy="-45" rx="22" ry="22"/>
<text text-anchor="middle" x="520.33" y="-40.8" font-family="Times,serif" font-size="14.00">6</text>
</g>
<!-- 4&#45;&gt;6 -->
<g id="edge6" class="edge">
<title>4&#45;&gt;6</title>
<path fill="none" stroke="black" d="M378.7,-47.93C384.4,-48.77 390.79,-49.58 396.67,-50 433.76,-52.64 443.2,-51.13 480.33,-49 482.89,-48.85 485.53,-48.66 488.19,-48.45"/>
<polygon fill="black" stroke="black" points="488.67,-51.92 498.31,-47.5 488.03,-44.95 488.67,-51.92"/>
<text text-anchor="middle" x="437.33" y="-53.8" font-family="Times,serif" font-size="14.00">e</text>
</g>
<!-- 5 -->
<g id="node7" class="node">
<title>5</title>
<ellipse fill="none" stroke="black" cx="437.33" cy="-18" rx="18" ry="18"/>
<text text-anchor="middle" x="437.33" y="-13.8" font-family="Times,serif" font-size="14.00">5</text>
</g>
<!-- 4&#45;&gt;5 -->
<g id="edge7" class="edge">
<title>4&#45;&gt;5</title>
<path fill="none" stroke="black" d="M377.87,-39.14C387.46,-35.67 399.82,-31.2 410.7,-27.27"/>
<polygon fill="black" stroke="black" points="411.95,-30.54 420.16,-23.85 409.57,-23.96 411.95,-30.54"/>
<text text-anchor="middle" x="399" y="-34.8" font-family="Times,serif" font-size="14.00">f</text>
</g>
<!-- 5&#45;&gt;6 -->
<g id="edge8" class="edge">
<title>5&#45;&gt;6</title>
<path fill="none" stroke="black" d="M454.72,-23.46C464.76,-26.81 477.91,-31.19 489.72,-35.13"/>
<polygon fill="black" stroke="black" points="488.64,-38.46 499.23,-38.3 490.85,-31.82 488.64,-38.46"/>
<text text-anchor="middle" x="476.83" y="-33.8" font-family="Times,serif" font-size="14.00">g</text>
</g>
</g>
</svg>
