<?xml version="1.0" encoding="UTF-8" standalone="no"?>
<!DOCTYPE svg PUBLIC "-//W3C//DTD SVG 1.1//EN"
 "http://www.w3.org/Graphics/SVG/1.1/DTD/svg11.dtd">
<!-- Generated by graphviz version 2.43.0 (0)
 -->
<!-- Title: FST Pages: 1 -->
<svg width="474pt" height="188pt"
 viewBox="0.00 0.00 474.49 188.04" xmlns="http://www.w3.org/2000/svg" xmlns:xlink="http://www.w3.org/1999/xlink">
<g id="graph0" class="graph" transform="scale(1 1) rotate(0) translate(4 184.04)">
<title>FST</title>
<polygon fill="white" stroke="transparent" points="-4,4 -4,-184.04 470.49,-184.04 470.49,4 -4,4"/>
<!-- 0 -->
<g id="node1" class="node">
<title>0</title>
<ellipse fill="none" stroke="black" stroke-width="2" cx="18" cy="-93.04" rx="18" ry="18"/>
<text text-anchor="middle" x="18" y="-88.84" font-family="Times,serif" font-size="14.00">0</text>
</g>
<!-- 1 -->
<g id="node2" class="node">
<title>1</title>
<ellipse fill="none" stroke="black" cx="173.69" cy="-130.04" rx="18" ry="18"/>
<text text-anchor="middle" x="173.69" y="-125.84" font-family="Times,serif" font-size="14.00">1</text>
</g>
<!-- 0&#45;&gt;1 -->
<g id="edge1" class="edge">
<title>0&#45;&gt;1</title>
<path fill="none" stroke="black" d="M34.4,-100.52C40.41,-103.2 47.42,-106.05 54,-108.04 84.75,-117.35 121.24,-123.4 145.56,-126.76"/>
<polygon fill="black" stroke="black" points="145.13,-130.23 155.5,-128.07 146.04,-123.29 145.13,-130.23"/>
<text text-anchor="middle" x="95.84" y="-128.84" font-family="Times,serif" font-size="14.00">a:b/1.2</text>
</g>
<!-- 0&#45;&gt;1 -->
<g id="edge2" class="edge">
<title>0&#45;&gt;1</title>
<path fill="none" stroke="black" d="M35.63,-88.25C59.45,-82.34 104.09,-74.79 137.69,-90.04 145.48,-93.58 152.23,-99.81 157.66,-106.31"/>
<polygon fill="black" stroke="black" points="155.01,-108.62 163.81,-114.52 160.61,-104.42 155.01,-108.62"/>
<text text-anchor="middle" x="95.84" y="-92.84" font-family="Times,serif" font-size="14.00">i:j/1.2</text>
</g>
<!-- 4 -->
<g id="node3" class="node">
<title>4</title>
<ellipse fill="none" stroke="black" cx="173.69" cy="-42.04" rx="18" ry="18"/>
<text text-anchor="middle" x="173.69" y="-37.84" font-family="Times,serif" font-size="14.00">4</text>
</g>
<!-- 0&#45;&gt;4 -->
<g id="edge3" class="edge">
<title>0&#45;&gt;4</title>
<path fill="none" stroke="black" d="M31.19,-80.28C37.47,-74.46 45.57,-67.99 54,-64.04 83.27,-50.35 120.33,-45.17 145.19,-43.21"/>
<polygon fill="black" stroke="black" points="145.61,-46.69 155.35,-42.54 145.14,-39.71 145.61,-46.69"/>
<text text-anchor="middle" x="95.84" y="-66.84" font-family="Times,serif" font-size="14.00">&lt;eps&gt;:&lt;eps&gt;/0</text>
</g>
<!-- 1&#45;&gt;1 -->
<g id="edge5" class="edge">
<title>1&#45;&gt;1</title>
<path fill="none" stroke="black" d="M164.45,-145.58C161.85,-155.95 164.93,-166.04 173.69,-166.04 179.43,-166.04 182.73,-161.69 183.59,-155.78"/>
<polygon fill="black" stroke="black" points="187.06,-155.33 182.92,-145.58 180.08,-155.79 187.06,-155.33"/>
<text text-anchor="middle" x="173.69" y="-168.84" font-family="Times,serif" font-size="14.00">g:h/1.2</text>
</g>
<!-- 2 -->
<g id="node4" class="node">
<title>2</title>
<ellipse fill="none" stroke="black" cx="298.22" cy="-132.04" rx="18" ry="18"/>
<text text-anchor="middle" x="298.22" y="-127.84" font-family="Times,serif" font-size="14.00">2</text>
</g>
<!-- 1&#45;&gt;2 -->
<g id="edge4" class="edge">
<title>1&#45;&gt;2</title>
<path fill="none" stroke="black" d="M191.72,-130.32C211.91,-130.65 245.81,-131.2 269.73,-131.59"/>
<polygon fill="black" stroke="black" points="269.87,-135.09 279.93,-131.76 269.99,-128.09 269.87,-135.09"/>
<text text-anchor="middle" x="228.93" y="-134.84" font-family="Times,serif" font-size="14.00">c:d/1.2</text>
</g>
<!-- 4&#45;&gt;4 -->
<g id="edge7" class="edge">
<title>4&#45;&gt;4</title>
<path fill="none" stroke="black" d="M164.45,-57.58C161.85,-67.95 164.93,-78.04 173.69,-78.04 179.43,-78.04 182.73,-73.69 183.59,-67.78"/>
<polygon fill="black" stroke="black" points="187.06,-67.33 182.92,-57.58 180.08,-67.79 187.06,-67.33"/>
<text text-anchor="middle" x="173.69" y="-80.84" font-family="Times,serif" font-size="14.00">a:b/2.3</text>
</g>
<!-- 5 -->
<g id="node6" class="node">
<title>5</title>
<ellipse fill="none" stroke="black" cx="298.22" cy="-32.04" rx="28.07" ry="28.07"/>
<ellipse fill="none" stroke="black" cx="298.22" cy="-32.04" rx="32.08" ry="32.08"/>
<text text-anchor="middle" x="298.22" y="-27.84" font-family="Times,serif" font-size="14.00">5/1.3</text>
</g>
<!-- 4&#45;&gt;5 -->
<g id="edge8" class="edge">
<title>4&#45;&gt;5</title>
<path fill="none" stroke="black" d="M191.72,-40.65C208.3,-39.3 234.13,-37.19 256.08,-35.4"/>
<polygon fill="black" stroke="black" points="256.48,-38.88 266.16,-34.57 255.91,-31.9 256.48,-38.88"/>
<text text-anchor="middle" x="228.93" y="-42.84" font-family="Times,serif" font-size="14.00">c:d/1.1</text>
</g>
<!-- 3 -->
<g id="node5" class="node">
<title>3</title>
<ellipse fill="none" stroke="black" cx="434.45" cy="-132.04" rx="28.07" ry="28.07"/>
<ellipse fill="none" stroke="black" cx="434.45" cy="-132.04" rx="32.08" ry="32.08"/>
<text text-anchor="middle" x="434.45" y="-127.84" font-family="Times,serif" font-size="14.00">3/0.2</text>
</g>
<!-- 2&#45;&gt;3 -->
<g id="edge6" class="edge">
<title>2&#45;&gt;3</title>
<path fill="none" stroke="black" d="M316.22,-132.04C335.19,-132.04 366.58,-132.04 392.11,-132.04"/>
<polygon fill="black" stroke="black" points="392.28,-135.54 402.28,-132.04 392.28,-128.54 392.28,-135.54"/>
<text text-anchor="middle" x="366.34" y="-134.84" font-family="Times,serif" font-size="14.00">e:f/1.2</text>
</g>
<!-- 5&#45;&gt;5 -->
<g id="edge9" class="edge">
<title>5&#45;&gt;5</title>
<path fill="none" stroke="black" d="M285.5,-61.84C285.08,-72.94 289.32,-82.08 298.22,-82.08 304.2,-82.08 308.07,-77.95 309.85,-71.88"/>
<polygon fill="black" stroke="black" points="313.34,-72.16 310.94,-61.84 306.38,-71.4 313.34,-72.16"/>
<text text-anchor="middle" x="298.22" y="-84.88" font-family="Times,serif" font-size="14.00">e:f/3.4</text>
</g>
</g>
</svg>
